<?xml version="1.0" encoding="utf-8"?>
<!-- Generator: Adobe Illustrator 23.0.5, SVG Export Plug-In . SVG Version: 6.00 Build 0)  -->
<svg version="1.1" id="Layer_1" xmlns="http://www.w3.org/2000/svg" xmlns:xlink="http://www.w3.org/1999/xlink" x="0px" y="0px"
	 viewBox="0 0 512 512" style="enable-background:new 0 0 512 512;" xml:space="preserve">
<style type="text/css">
	.st0{fill:#491329;}
	.st1{fill:#C6336C;}
	.st2{fill:#FE4189;}
	.st3{fill:#26000D;}
	.st4{fill:#FE3B92;}
</style>
<g>
	<path d="M2,513c-2.1-0.9-0.9-2.7-0.9-4C1,488.7,1,468.4,1,448.1C1,300.5,1,153,1.1,5.5C1.1,4-0.1,2.1,2,1c0.5,0.5,0.9,1,1.2,1.6
		c1.6,3.3,1.2,6.8,1.2,10.3c0,50,0,99.9,0,149.9c0,112.3,0,224.5,0,336.8c0,4,0.6,8-1.2,11.8C2.9,512,2.5,512.5,2,513z"/>
	<path class="st0" d="M2.2,2.2C2.1,1.8,2.1,1.4,2,1c168.8,0,337.7,0,506.5,0.1c1.5,0,3.4-1.2,4.5,0.9c-0.5,0.5-1,0.9-1.6,1.2
		c-3.3,1.6-6.8,1.2-10.3,1.2c-49.3,0-98.6,0-147.9,0c-113.1,0-226.1,0-339.2-0.1C10,4.4,5.6,5.6,2.2,2.2z"/>
	<path class="st0" d="M2,513c0.1-0.4,0.1-0.8,0.2-1.2c1.4-1.6,3.4-2,5.4-2.1c2.7-0.1,5.3-0.1,8-0.1c161.2,0,322.4,0,483.6,0
		c4.1,0,8.4-0.6,12.3,1.2c0.6,0.4,1.1,0.8,1.6,1.2c-0.9,2.1-2.7,0.9-4,0.9c-19.6,0.1-39.3,0.1-58.9,0.1C300.7,513,151.4,513,2,513z"
		/>
	<path class="st1" d="M513,512c-0.4-0.1-0.7-0.1-1.1-0.2c-1.8-1.3-2.2-3.2-2.3-5.3c-0.1-2.5-0.1-5-0.1-7.5c0-161.4,0-322.7,0-484.1
		c0-2.5,0-5,0.1-7.5c0.1-2.1,0.5-4,2.3-5.3c0.4-0.1,0.7-0.1,1.1-0.2C513,172,513,342,513,512z"/>
	<path class="st2" d="M511.9,2.2c0,9,0.1,18,0.1,27c0,158.2,0,316.5,0,474.7c0,2.7,0,5.3-0.1,8c-2,0.1-4,0.2-6,0.2
		c-165.8,0-331.5,0-497.3,0c-2.2,0-4.3-0.1-6.5-0.2c0-134.5,0-269.1,0-403.6c0-35.3,0-70.6,0-105.9C4,2.1,5.8,2,7.7,2
		c166.4,0,332.9,0,499.3,0C508.6,2,510.3,2.1,511.9,2.2z"/>
	<path class="st3" d="M490.2,257.3c0,75.5-0.1,151,0.1,226.5c0,5-1.2,6.3-6.3,6.3c-151.1-0.2-302.3-0.1-453.4,0c-4.9,0-6-1.3-6-6
		c0.1-151.3,0.1-302.6,0-453.9c0-4.8,1.2-6,6-6c151.3,0.1,302.6,0.1,453.9,0c4.7,0,5.7,1.3,5.7,5.8
		C490.2,105.6,490.2,181.4,490.2,257.3z"/>
	<path class="st4" d="M369.7,250.8c0,35.2-0.1,70.3,0.1,105.5c0,4.7-1.7,6.9-5.5,8.7c-18.9,8.7-38.9,11.3-59.4,10.3
		c-20.6-1-38.7-8-52.6-23.9c-11.5-13.1-16.9-28.9-19.1-45.9c-2.5-19.1-1.7-38,5.9-56c12.6-30.1,36.3-45.7,67.9-50.5
		c6.1-0.9,12.3-1.2,18.4-0.8c3.7,0.2,4.8-0.8,4.8-4.6c-0.2-16.8,0-33.7-0.2-50.5c0-3.7,0.9-4.9,4.7-4.8c10,0.2,20,0.3,30,0
		c3.9-0.1,5.1,1,5.1,5C369.7,179.2,369.7,215,369.7,250.8z"/>
	<path class="st4" d="M184,255.5c0,37.2-0.1,74.3,0.1,111.5c0,4.5-1.3,5.6-5.6,5.4c-9.2-0.3-18.3-0.3-27.5,0c-4.3,0.2-5.6-1-5.6-5.5
		c0.2-30.2,0.1-60.3,0.1-90.5c0-44,0.1-88-0.1-132c0-5.2,1.5-6.5,6.4-6.2c9.1,0.4,18.3,0.3,27.5,0c3.8-0.1,4.7,1,4.7,4.8
		C184,180.6,184,218,184,255.5z"/>
	<path class="st3" d="M330.1,286.7c0,16.7-0.1,33.3,0.1,50c0.1,3.9-1.3,5-4.9,5.7c-23.1,4.3-42.8-6.5-49.8-28.8
		c-6.5-20.8-6.8-41.8,3.9-61.5c8.5-15.8,29.5-25,46-21.2c3.5,0.8,4.9,2.2,4.8,6C330,253.4,330.1,270.1,330.1,286.7z"/>
</g>
</svg>
