<svg xmlns="http://www.w3.org/2000/svg" viewBox="0 0 799.95 279.45"><defs><style>.cls-1{fill:#1f191a;}.cls-2{fill:#fbfbfb;}.cls-3{fill:#272122;}.cls-4{fill:#147bc0;}.cls-5{fill:#fefefe;}.cls-6{fill:#fdfdfd;}.cls-7{fill:#147ac0;}.cls-8{fill:#0f9e49;}.cls-9{fill:#157bc0;}.cls-10{fill:#fdfefe;}.cls-11{fill:#3aac44;}.cls-12{fill:#60b840;}.cls-13{fill:#2ba746;}.cls-14{fill:#fcfdfd;}.cls-15{fill:#147abf;}.cls-16{fill:#27a646;}.cls-17{fill:#5bb640;}.cls-18{fill:#3bac44;}.cls-19{fill:#4ab142;}.cls-20{fill:#41ae44;}.cls-21{fill:#33aa45;}.cls-22{fill:#3692cc;}.cls-23{fill:#55b442;}.cls-24{fill:#52a5d6;}.cls-25{fill:#59aad9;}.cls-26{fill:#62b940;}.cls-27{fill:#1a7fc3;}.cls-28{fill:#61afdc;}.cls-29{fill:#6dbb3e;}.cls-30{fill:#23a446;}.cls-31{fill:#35aa45;}.cls-32{fill:#5ab641;}.cls-33{fill:#38aa45;}.cls-34{fill:#74bce3;}.cls-35{fill:#64b940;}.cls-36{fill:#7abf3d;}.cls-37{fill:#54b341;}.cls-38{fill:#65b940;}.cls-39{fill:#80c13d;}.cls-40{fill:#6dbb3f;}.cls-41{fill:#1b80c3;}.cls-42{fill:#31a945;}.cls-43{fill:#76be3e;}.cls-44{fill:#16a048;}.cls-45{fill:#4ba0d3;}.cls-46{fill:#1ba248;}.cls-47{fill:#68ba3f;}.cls-48{fill:#6ab5df;}.cls-49{fill:#46af43;}.cls-50{fill:#21a447;}.cls-51{fill:#0f9d49;}.cls-52{fill:#6db7df;}.cls-53{fill:#2585c6;}.cls-54{fill:#4ab143;}.cls-55{fill:#4bb042;}.cls-56{fill:#53b341;}.cls-57{fill:#4bb142;}.cls-58{fill:#2d8cc9;}.cls-59{fill:#46ae42;}.cls-60{fill:#48af42;}.cls-61{fill:#2da846;}.cls-62{fill:#21a346;}.cls-63{fill:#69b4df;}.cls-64{fill:#71bd3e;}.cls-65{fill:#70b9e1;}.cls-66{fill:#50b342;}.cls-67{fill:#76bde3;}.cls-68{fill:#56b441;}.cls-69{fill:#7ec2e6;}.cls-70{fill:#27a545;}.cls-71{fill:#33a844;}.cls-72{fill:#f9f9f9;}.cls-73{fill:#2d8bc8;}.cls-74{fill:#51b241;}.cls-75{fill:#4a9fd3;}.cls-76{fill:#77bde4;}.cls-77{fill:#31a846;}.cls-78{fill:#5ab340;}.cls-79{fill:#3aaa45;}.cls-80{fill:#71b9e1;}.cls-81{fill:#5aaad9;}.cls-82{fill:#68b3de;}.cls-83{fill:#119d4a;}.cls-84{fill:#69ba3f;}.cls-85{fill:#21a348;}.cls-86{fill:#6cb7e0;}.cls-87{fill:#27a448;}.cls-88{fill:#44ad43;}.cls-89{fill:#22a347;}.cls-90{fill:#449bd1;}.cls-91{fill:#37ab48;}.cls-92{fill:#2786c5;}.cls-93{fill:#56b444;}.cls-94{fill:#4ca0d4;}.cls-95{fill:#177cc1;}.cls-96{fill:#4db043;}.cls-97{fill:#44ae44;}.cls-98{fill:#61afdb;}.cls-99{fill:#3c95cc;}.cls-100{fill:#2485c4;}.cls-101{fill:#26a346;}.cls-102{fill:#109d48;}.cls-103{fill:#35a947;}.cls-104{fill:#129a49;}.cls-105{fill:#3bab44;}.cls-106{fill:#8dcbe8;}.cls-107{fill:#85c7e9;}.cls-108{fill:#43ac42;}.cls-109{fill:#33a745;}.cls-110{fill:#3f97cf;}.cls-111{fill:#7ec1e5;}.cls-112{fill:#2183c2;}.cls-113{fill:#85c7e8;}.cls-114{fill:#92ceea;}.cls-115{fill:#40ab43;}.cls-116{fill:#197cbd;}.cls-117{fill:#8ccbea;}.cls-118{fill:#93cfeb;}.cls-119{fill:#4098d0;}.cls-120{fill:#68b3dc;}.cls-121{fill:#58b342;}.cls-122{fill:#3993cc;}.cls-123{fill:#f5f5f5;}.cls-124{fill:#2aa548;}.cls-125{fill:#1479ba;}.cls-126{fill:#3390cb;}.cls-127{fill:#8ac9e7;}.cls-128{fill:#2585c5;}.cls-129{fill:#2283c3;}.cls-130{fill:#85c6e7;}.cls-131{fill:#2d8bc7;}.cls-132{fill:#1c80bf;}.cls-133{fill:#50ae42;}.cls-134{fill:#45ac42;}.cls-135{fill:#348fc7;}.cls-136{fill:#4c9fcf;}.cls-137{fill:#47a846;}.cls-138{fill:#1e7db7;}.cls-139{fill:#a3a0a1;}.cls-140{fill:#adabab;}.cls-141{fill:#f6f6f6;}.cls-142{fill:#eaeaea;}.cls-143{fill:#f0efef;}.cls-144{fill:#e9e9e9;}.cls-145{fill:#3f98d0;}.cls-146{fill:#53a6d7;}.cls-147{fill:#4ca1d4;}.cls-148{fill:#469cd2;}.cls-149{fill:#6ebc3f;}.cls-150{fill:#2a2526;}</style></defs><title>esri</title><g id="Layer_2" data-name="Layer 2"><g id="Layer_1-2" data-name="Layer 1"><path class="cls-1" d="M215.07,40.75c6.19,4.49,12.66,8.6,18.2,13.91,24.45,23.42,37.3,52.22,37.12,85.94-.23,43.65-16.75,80.85-49.27,110.05-23,20.7-51.24,29.14-81.89,28.79-21.9-.24-43.38-3.44-63.7-12.51C36.78,249.61-4.3,201.29.36,138.9c3.38-45.25,22.88-81,59.86-106.53C85.87,14.65,115,7.15,146.35,9.9c1.75.16,3.7-.05,5.18,1.91-2.65,2.46-6.17.44-8.88,1.83-1.29,1.72-3.22,1.48-5,1.6A169.79,169.79,0,0,0,90.52,25.43C80.93,29,80,31,82,41.54a18.19,18.19,0,0,1,.41,3.21c.16,2.62-.38,5.28.55,7.84a17.65,17.65,0,0,1,.44,3.83,51.14,51.14,0,0,0,.81,5.08c-.07,4.11,1.83,4.67,5.26,3.13a103.55,103.55,0,0,1,11.54-4c2.67-.55,5.19-1.63,7.86-2.2,4-1,7.9-2.14,11.92-3,3.43-.79,7-1.07,10.38-1.81.67-.28,3,.56.93-1.52-5.16-5.14-11-9.51-16.58-14.11-2.18-1.77-4.44-3.44-6-5.87-1.87-6.9-.31-9.36,6.48-9.73,2.32-.12,4.47-1,6.78-1,27.84-3.4,54.83-.68,80.43,11.5C207.48,34.94,211.89,37,215.07,40.75Z"/><path class="cls-1" d="M401.28,162.14c-17.33,0-34.67.13-52-.1-4.18,0-4.51,1.13-3.65,4.84,6,25.73,33.8,38.12,59.54,26.33a44.7,44.7,0,0,0,13.48-9.32c1.78-1.82,2.87-1.94,4.73,0q9.19,9.54,18.76,18.71c2.14,2,1.91,3.13-.2,5-14.89,13.17-32.35,19.23-52.09,19.56-34.54.57-64.58-17.45-76.27-47-19.2-48.63,8.06-103.58,67.32-108.43C403.64,69.8,424,75.17,439.58,92.9c12.05,13.7,16.85,30.35,18.32,48.13.45,5.47.1,11,.51,16.48.27,3.7-.82,4.77-4.63,4.72C436.28,162,418.78,162.14,401.28,162.14Z"/><path class="cls-1" d="M531.24,227.11c-24.95,0-43.13-4.42-58.22-18.12-3.06-2.77-3.88-4.43-.27-7.61,6.11-5.39,11.77-11.32,17.37-17.26,2.34-2.48,3.66-2.69,6.13,0,10.07,10.84,22.25,16.73,37.44,14.76a29.54,29.54,0,0,0,12.16-4.21c10.34-6.54,10-19-.67-25-8.13-4.52-17.32-5.69-26.2-7.75-6.49-1.51-12.9-3.17-19.21-5.31C463,144.15,468.51,100.31,488.6,85.05c12.64-9.61,27-13.5,42.45-13.75,18.1-.3,35.09,3.48,49,16.11,5.08,4.61,5,4.69.06,9.62-5.3,5.3-10.76,10.46-15.86,16-2.34,2.51-3.48,2.73-5.9-.08-8.81-10.23-20.15-13.57-33.3-11.11a21.9,21.9,0,0,0-8.67,3.65c-8.69,6.17-8.15,16.92,1.25,21.89,6.84,3.61,14.46,4.82,21.92,6.49a170.37,170.37,0,0,1,26.75,7.85c31.91,12.86,30.49,56,7.91,72C559.74,224,543.3,227,531.24,227.11Z"/><path class="cls-1" d="M645,97.16c7.31-11.6,16.76-20,29.9-23.82a47.94,47.94,0,0,1,25.16-.74c2.27.56,3,1.44,2.83,3.69q-.72,14.73-1.18,29.47c-.08,2.86-1.1,3.15-3.7,2.5a51.14,51.14,0,0,0-22.29-.86c-18.66,3.59-30.61,17.91-30.69,37q-.16,37,.06,74c0,4-.77,5.45-5.08,5.29-9.32-.36-18.67-.22-28,0-3.09.06-4.3-.57-4.29-4.05q.18-70.49,0-141c0-3.28,1.12-3.81,4-3.76,9.83.16,19.67.21,29.5,0,3.21-.07,3.92,1,3.81,4C644.85,84.88,645,91,645,97.16Z"/><path class="cls-1" d="M721.77,148.75c0-23,.08-45.95-.07-68.92,0-3.68.59-5.21,4.78-5,9.64.35,19.31.21,29,0,2.87,0,3.59.87,3.59,3.66q-.12,70.66,0,141.32c0,3.21-1,3.87-4,3.81-9.65-.17-19.31-.22-29,0-3.56.09-4.41-1-4.39-4.47C721.84,195.69,721.77,172.22,721.77,148.75Z"/><path class="cls-1" d="M765.05,23.8c0,13.46-10.79,23.82-24.89,23.87a24,24,0,0,1-24.45-23.78A24,24,0,0,1,740.06,0C754.13,0,765,10.4,765.05,23.8Z"/><path class="cls-2" d="M215.07,40.75c-15-8.42-30.76-14.81-47.87-17.5-14.72-2.31-29.47-1.95-44.23-.6-3.59-1.74-7.17,0-10.5.6-8.26,1.61-16.25,4.38-24.23,7.12-3.85,1.32-6.46,3.08-5.95,7.67a4,4,0,0,1-1.46,4c-1.27-3.7-.61-7.55-.9-11.33-.21-2.79,2.11-3.14,3.79-3.92,13.86-6.39,28.55-9.77,43.56-12,5.09-.75,10.19-1.54,15.37-1.17,26.25.1,49.6,8.8,70.8,23.87C215.61,39,215.63,39,215.07,40.75Z"/><path class="cls-3" d="M800,86.33a12.15,12.15,0,0,1-12.16,12,12.1,12.1,0,1,1,12.16-12Z"/><path class="cls-4" d="M182.91,217.32c-11.08,1.33-22,3.44-32.49,7.33-1.86.69-3.06.43-4.15-1.34-5.07-8.19-10.85-15.94-15.27-24.54,1.18-2.21,3.46-3,5.45-4.12a80,80,0,0,0,21.82-17.85c1.2-1.43,3.1-2.71,2.46-5.11a55.29,55.29,0,0,1,17.13-1.92c3.53,2.24,5.17,6.14,8,9,1.19,2.28,2.18,4.61,1.92,7.27-.64,4.64-2.08,9.11-2.75,13.75a26.58,26.58,0,0,0-.57,7.06c.11,1.91,0,3.82,0,5.74A6.15,6.15,0,0,1,182.91,217.32Z"/><path class="cls-5" d="M21.19,166.65c-3.81,5.46-3.08,8.44,2.52,10.38,1.65.87,2.09,2.53,2.56,4.11,4,13.23,10.7,25,19,35.93,1.09,1.43,2.42,2.8,2.46,4.79-.06,1.49-3,3,.1,4.46a10.63,10.63,0,0,1,9.4,3.31A96.22,96.22,0,0,0,85.42,249c4.51,2.95,10.35,3.22,14.41,7.1-7.08,8.33-3.73,8.18-13.83,3.85-40.26-17.28-64.28-47.89-73-90.68a163,163,0,0,1-3-39.68c.14-3.28-.8-6.76,4.67-7.3,3.1-.3,5-4.49,8.57-5.15.49,9.06-2.43,17.88-1.78,27,0,5.77-.11,11.55.59,17.29A9.2,9.2,0,0,1,21.19,166.65Z"/><path class="cls-5" d="M221.92,70.87c14,2.3,21.62,11.93,27,23.83,12.47,27.63,14.89,56.11,6.75,85.42a196.28,196.28,0,0,1-7.91,23.52c-.89.24-1.36.06-1-1,.2-4.81.37-9.62.61-14.43.16-3.34-.35-6.85,4-8.42,2-.7,1.74-2.59,0-3.89-1.33-1-2.67-2-4-2.92.33-10.38,1.37-20.74,1-31.15,0-3.31-.55-6.57-.88-9.86-.18-1.8-.16-3.66,1.23-5.13,1.62-.14,3.95,1.28,4.58-1.13.47-1.8-1.77-2.44-3-3.38s-2.37-1.65-3.56-2.47c-3.5-5.25-4.08-11.68-6.93-17.19a87.4,87.4,0,0,0-5-10.2C233,88,230,84.2,227.29,80.19,225.75,76.94,221.73,75.12,221.92,70.87Z"/><path class="cls-4" d="M207.48,57.85c-2.49.45-4-1.24-5.62-2.61a38,38,0,0,0-5.21-3.84c-1.88-1.07-3.94-3.72-6.11-1.61s1.34,3.55,2,6.12c-7.61-.72-14.86-2-22.17-2.45a175.69,175.69,0,0,0-18.91-.52,7.58,7.58,0,0,1-6.83-3A181.29,181.29,0,0,0,127.36,32c1.25-1.78,3.19-1.59,5-1.63,26-.57,49.5,6.91,70.64,21.92C204.94,53.67,207.39,54.87,207.48,57.85Z"/><path class="cls-5" d="M30.37,96.8a31.11,31.11,0,0,0-.53-5C26.37,79,31.18,69.19,40.18,60.27,47.14,53.37,53.67,46,61.46,40c3.78-2.92,7.8-5.53,12.48-8.82.48,6,.89,11.21,1.3,16.38.22,2.28-1.57,3-3,4-3.66,2.48-7.18,5.15-10.59,8-5.84,4.17-10.44,9.57-15,15A111.54,111.54,0,0,0,34.06,93.32C33.26,94.88,32.66,96.77,30.37,96.8Z"/><path class="cls-4" d="M170,256c-5.83-5.92-10.3-12.87-15-19.64-1.77-2.53-.65-3.35,1.67-4.14a122.65,122.65,0,0,1,28.45-6.33,4.33,4.33,0,0,1,2.25,2.5c2.17,5.71,5.74,10.63,9,15.75-4.1,5.2-10.2,7.14-16,9.46C177,254.94,173.93,257.54,170,256Z"/><path class="cls-4" d="M122.66,261.55c-9.24-6.52-9.25-6.53-.14-12.61a165.1,165.1,0,0,1,17.73-10.24c2.7-1.35,4.35-1.22,6.14,1.56,4,6.3,8.45,12.35,12.72,18.51-.73,1.79-2.36,2.27-4,2.54a124.65,124.65,0,0,1-25.81,2C126.89,263.22,125.08,261.31,122.66,261.55Z"/><path class="cls-6" d="M207.48,57.85c-16.36-14.12-35.55-21.82-56.71-25A107.82,107.82,0,0,0,127.36,32l-6-4.58c31.25-6.13,93,15.57,106,37.73Z"/><path class="cls-4" d="M47.76,221.86a108.93,108.93,0,0,1-24-44.83c3.73-.55,5.69-4.11,9-5.33,4.78-.78,5,3.81,7.23,6.09l1,1.9c-.93,2.91-1.89,5.82-1.6,8.95-.1,6.61,3.45,11.14,8.49,14.79,2.66,1.93,5.9,3,8.32,5.31,1.72,1.35,2.2,2.53.24,4.32C53.35,215.82,50.62,218.91,47.76,221.86Z"/><path class="cls-7" d="M122.08,203.37c5.15,7.92,10.27,15.86,15.47,23.75,1.07,1.63.86,2.54-.91,3.41-8.07,4-15.29,9.32-22.79,14.21-1.78-1.92-1.27-4.3-1.34-6.56a26,26,0,0,1,0-4.14,23.92,23.92,0,0,1,.23-4,50.79,50.79,0,0,0,.92-5.19,36.57,36.57,0,0,1,1.85-6.34,34.12,34.12,0,0,1,1.28-3.36,49.45,49.45,0,0,0,2.1-6.07C119.76,207.08,119.92,204.67,122.08,203.37Z"/><path class="cls-8" d="M223.89,220.35c-1.62-.36-3.28-.58-4.85-1.09-4.51-1.47-10.87.1-13.34-3.83-2.19-3.48-1.1-9-1.46-13.64,6.23-3.11,11.87-7.18,17.74-10.87,1.47-.92,3.34-2.89,5,0,1.19,8.2.59,16.41.32,24.62A5.83,5.83,0,0,1,223.89,220.35Z"/><path class="cls-9" d="M111.4,33.11C119.56,39.82,128.21,46,135.32,54c-1.14,1.21-2.31.76-3.39.77-8.21-1.79-16-5.29-24.46-6a113.34,113.34,0,0,0-18.33-.13c-2.39.18-5.09.35-6.14,3.29A3,3,0,0,1,81.86,53c-1.26-2.63-.9-5.42-.85-8.18.52-.84.94-1.84,1.86-2.28C92,38.21,101.22,34.18,111.4,33.11Z"/><path class="cls-4" d="M225.94,216.58l0-26.78c-1.05-4.48,1.34-8.07,3-11.85a5.63,5.63,0,0,1,2.07-2,3.53,3.53,0,0,1,1,.05c11.65,4.06,10.44.78,10,14.26-2.16,9.19-7.4,16.78-12.7,24.32C228.53,215.61,227.92,217.35,225.94,216.58Z"/><path class="cls-4" d="M85.24,250.19A99,99,0,0,1,55.46,229.9c-2.25-2.16-4.45-3.73-7.61-3.58,5.5-.16,10.43-1.62,14.13-6,1.49-1.77,2.78-1.71,4.4.18C71.14,226,76.1,231.41,81,236.85,83.11,241.07,86.4,244.92,85.24,250.19Z"/><path class="cls-10" d="M111.4,33.11c-.89,1.51-2.48,1.44-3.91,1.79A135.87,135.87,0,0,0,81,44.78L80.83,42c.46-10.84.56-10.58,11.11-14.47,8.91-3.28,18.12-5,27.39-6.57,1-.17,4-2.29,3.64,1.65a53.46,53.46,0,0,1-6.2,1.22C109.52,24.45,108.33,26.42,111.4,33.11Z"/><path class="cls-11" d="M223,119a23.53,23.53,0,0,1,8,2.79c1.53,2.33-.1,4.17-1.16,5.9a116.18,116.18,0,0,1-27.51,31c-1.6,1.26-3.34,2.19-5.46,1.13-2.59-1.7-1.82-4.68-2.64-7.05a119.29,119.29,0,0,0,21.47-22A59.93,59.93,0,0,0,223,119Z"/><path class="cls-12" d="M173,118.72c2.1,2.27,1.47,5.57,3,8-.28,1.62-1.46,2.54-2.68,3.42-10.87,7.88-23.12,12.07-36.36,13.63a5.14,5.14,0,0,1-3.36-.61c-2-1.65-2.17-3.78-1.67-6.1.86-2.4,3-3,5.13-3.39,12.25-2.24,23.87-5.93,33.63-14.1A3.85,3.85,0,0,1,173,118.72Z"/><path class="cls-13" d="M236.07,131.59a41.84,41.84,0,0,1,2.87,13.2c-3.79,6.87-9.17,12.45-14.7,17.87-1.15,1.13-2.6,2.14-4.43,1.19a29,29,0,0,1-10-2c.18-1.63,1.36-2.65,2.43-3.66A134.69,134.69,0,0,0,233,134,4.45,4.45,0,0,1,236.07,131.59Z"/><path class="cls-14" d="M218,225.85c4.5,0,8.83,1,14,2.09-7.53,9.4-16.56,16.17-26.59,22.32V237.67C208.21,232.24,213.27,229.22,218,225.85Z"/><path class="cls-15" d="M166.92,80.93,153.73,61c10,0,19.26-.77,28.38,1.79.45,1.68-.77,2.63-1.63,3.74-3.66,3.56-7.25,7.16-10,11.56C169.73,79.39,169.05,81.18,166.92,80.93Z"/><path class="cls-14" d="M225.94,216.58c5.82-6.6,9.88-14.28,13.71-22.1.72-1.45,1.55-2.84,2.33-4.25.7,7.29,0,14.57-.18,21.86-.08,4.39-3,7.22-5.27,10.43-1.1,1.53-2.31.67-3.54.33l-9.09-2.5C224.57,219.09,225.25,217.83,225.94,216.58Z"/><path class="cls-16" d="M116.72,218.79l-1.86,6c-2.57,2.18-5.7,1.75-8.55,1.37-10.17-1.36-20.3-3-29.32-8.38-5.11-5.18-5.11-5.18,0-8.82,9.56,3.28,19.07,6.69,29.17,8.09C109.67,217.54,113.53,216.21,116.72,218.79Z"/><path class="cls-6" d="M122.66,261.55c8.41-.33,16.84.66,25.23-.7,3.76-.61,7.59-.78,11.22-2.09,2,2.41,3.95,4.82,6.65,8.1C150.37,267.75,135.48,274,122.66,261.55Z"/><path class="cls-14" d="M170,256A94.45,94.45,0,0,0,195.71,244c.41-.94.95-1.6,2.08-.91-.07,14.48,1.85,10.49-10,16.37-.89.44-1.8.84-2.71,1.24C175.93,264.66,175.93,264.66,170,256Z"/><path class="cls-17" d="M57.94,90.76c5.29-3.77,11.14-6.54,17-9.38,4.76-2.33,4.78-2.28,5.09,3.41-1.42,1.78-3.57,2.32-5.51,3.22-11.92,5.56-18.83,15.27-22.77,27.45a6.36,6.36,0,0,0,.5,5.71c-.45,1.47-1.72,1.69-3,2-1.53.21-3.1.84-4.57-.23-1.8-2.85-.9-5.75-.16-8.65A53.1,53.1,0,0,1,57.94,90.76Z"/><path class="cls-18" d="M30.37,96.8C35.42,89,39.3,80.47,46,73.79A59.34,59.34,0,0,1,70.59,58.73c2-.64,4.47-2.16,6,1l.25,3.09c-1.38,1.88-3.54,2.33-5.55,3.07a64.07,64.07,0,0,0-32.17,26c-2.08,1.73-4.12,3.5-6.24,5.17C32.08,97.7,31,98.72,30.37,96.8Z"/><path class="cls-19" d="M191.16,141.78c-.8-2.63-1.61-5.26-2.41-7.9,1.32-3.56,4.49-5.56,7-8.09,3.36-3.38,5.41-7.84,9.19-10.84a29.5,29.5,0,0,1,9,1.88c.77,1.64-.18,2.88-1,4.1-4.64,6.87-9.56,13.53-15.85,19C195.43,141.39,193.91,143.7,191.16,141.78Z"/><path class="cls-20" d="M223,119c1.86,3.33-1.14,5.4-2.53,7.33-6.62,9.19-13.61,18.14-22.68,25.18a5.12,5.12,0,0,1-3.59,1.29c-.4-1.67-.79-3.34-1.19-5,.58-2.23,2.2-3.72,3.86-5.08a86.8,86.8,0,0,0,18.45-21.48,7.51,7.51,0,0,1,3.61-3.28Z"/><path class="cls-21" d="M119.89,209.78a16.38,16.38,0,0,1-2.08,6c-4.61,2.76-9.4.53-14,.15-7.23-.6-14.09-3.27-20.88-5.86-1.45-.55-3.23-1.12-3-3.32a22.8,22.8,0,0,1,7-5c8.8,3.24,17.77,5.63,27.25,5.66C116.35,207.39,118.55,207.64,119.89,209.78Z"/><path class="cls-22" d="M118.25,66.73a7.09,7.09,0,0,1,4.4-1,8.85,8.85,0,0,1,7.2.73c10.06,5.39,18.51,12.6,24.42,22.53-1.48,3-4.15,3.44-7.07,3.44-3.28-2.3-5.57-5.61-8.34-8.43-5.67-5.76-11.93-10.47-19.65-13.11a7,7,0,0,1-3.41-2C115.5,66.91,117.52,67.55,118.25,66.73Z"/><path class="cls-23" d="M177,129.61a12,12,0,0,1,2,6c.92,2.53-.48,4.27-2.33,5.43-8.7,5.49-17.49,10.85-28.41,10.19-1.07,0-2.14,0-3.21,0a8.1,8.1,0,0,1-4.53-1.47,2.1,2.1,0,0,1-.82-2.07c1.35-2.27,3.76-2.65,6-3.14A79.66,79.66,0,0,0,177,129.61Z"/><path class="cls-24" d="M58.92,153.71a5.55,5.55,0,0,1,3-2c4.16,3,7.28,7.14,11.68,10a45.74,45.74,0,0,0,27.4,7.19,6.24,6.24,0,0,1,4.26.84l.76,1.94c.33,4.59-.24,5.07-6.6,5.59-5.88,0-11.25-2.65-17-3.31-2-.58-4.15-.72-5.92-2-3.85-3.63-8.82-5.8-12.65-9.42C61.36,160.14,57.9,158.12,58.92,153.71Z"/><path class="cls-25" d="M87.71,85.89l-.59-2c1-3,3.43-4.32,6.19-5.25,18.09-.06,33.61,5,43.43,21.61a6,6,0,0,1,.09,2.38c-.44,1.49-.55,3.12-1.8,4.27-1.88.19-2.55-1.33-3.34-2.52C122.2,90.27,109,84.31,92.08,86.21,90.63,86.38,89.11,86.69,87.71,85.89Z"/><path class="cls-26" d="M52.05,120.83c-4.65-.14-2.17-3.74-1.78-5C55,100.67,63.76,89.09,80,84.79c.32,1.66.63,3.33,1,5a6.25,6.25,0,0,1-2.41,1.72c-12.45,5.54-19.91,15.09-22.71,28.36a2.85,2.85,0,0,1-1.62,1.52A2.22,2.22,0,0,1,52.05,120.83Z"/><path class="cls-27" d="M160.73,171.69c.88.47,3.93-.77,1.65,2.17A81.39,81.39,0,0,1,131,198.77a12.85,12.85,0,0,1-2.95-5c3-4,7.87-5.33,11.78-8,5.74-4,10.45-9.13,16.06-13.21C157.38,171.51,159.08,171.72,160.73,171.69Z"/><path class="cls-28" d="M87.71,85.89c16.36-3.89,31.21.39,42.06,13.61,1.86,2.28,3.36,4.85,5,7.29a1.07,1.07,0,0,1,.16,1.73l-5,1.14c-8-14.33-20.19-20.73-36.5-19.48-1.59.12-3.26.91-4.78-.3C87.73,88.71,87.84,87.27,87.71,85.89Z"/><path class="cls-29" d="M134.86,118.16c9.15-2.42,18.38-4.4,27.92-4.43,1.08-.48,2.36-1,3.06.27.58,1-.43,1.88-1.19,2.46a56.74,56.74,0,0,1-27.13,11.43c-1.67.22-3.33-.06-4.27-1.82C132.45,123.16,133.3,120.59,134.86,118.16Z"/><path class="cls-30" d="M219.81,163.85c4.55-1.5,6.89-5.53,9.93-8.72,3.18-3.34,5.35-7.58,9.2-10.34a46.24,46.24,0,0,1,1.83,12.15c-1.31,4.06-1.81,8.56-6,11.07Z"/><path class="cls-17" d="M204.09,68.45A16.88,16.88,0,0,1,209,74.79a8.32,8.32,0,0,1,1.19,5.74,63.54,63.54,0,0,1-7.3,21.58c-1.32,2.38-3.09,4-6.06,2.74-2.4-.09-4.87.32-7.11-.93C198.54,97,199,86.44,201.4,76.75,202.11,73.91,201.62,70.71,204.09,68.45Z"/><path class="cls-31" d="M196.83,159.83c4.35.35,6.28-3.52,8.85-5.69a108.69,108.69,0,0,0,23.92-28.69,23.75,23.75,0,0,0,1.36-3.68,2.74,2.74,0,0,1,3,3c1.17,2.26.07,4.09-1.05,6-6.4,10.75-14.82,19.81-23.89,28.3-1.41,1.32-2.87,2.87-5.18,1.82C201.49,160.69,199,161.23,196.83,159.83Z"/><path class="cls-32" d="M177,129.61c-1.14,5.09-6.18,5.56-9.58,7.84-8.38,5.62-18.39,7.19-27.72,10.44-1.18.85-2.15.22-3.13-.42a9.58,9.58,0,0,1-3-3.62,1.06,1.06,0,0,1,.59-1.07,80.5,80.5,0,0,0,41.79-16A3.35,3.35,0,0,1,177,129.61Z"/><path class="cls-33" d="M19.88,143.74c-.6-9.09,1.4-17.85,3.35-26.61A271.18,271.18,0,0,0,32.57,156c.38,1.15.66,2.26-.71,3-3.42-.19-3.85-3.52-5.63-5.42-1.43-1.54-2.51-3.37-3.84-5C21,147.2,21.12,145.13,19.88,143.74Z"/><path class="cls-34" d="M74.26,132a12.49,12.49,0,0,1-5.12,2.92c-2.51.32-2.45-1.81-2.88-3.22-3.18-10.33,2.94-26.52,12.08-32.12,1.38-.84,2.78-2,4.54-.76,0,2.84,2.28,5.08,2,8-3.92.44-6,3.2-7.73,6.28C73.83,119,72.38,125.23,74.26,132Z"/><path class="cls-35" d="M194,63.58,198,64c3.56,3.78,1.62,8.26,1.32,12.39-.63,8.4-3.74,16.12-7.5,23.59a9,9,0,0,1-3.82,3.81c-3.42-.2-6.93.59-10.24-.91,5.24-2.18,7.22-7,9.37-11.63a65.47,65.47,0,0,0,5.41-22.11C192.66,67.2,192.25,65.09,194,63.58Z"/><path class="cls-36" d="M135,108.52c-.05-.58-.11-1.15-.16-1.73.39-1.35-.05-2.93,1.13-4.06,2.48,1.39,4.79.56,7.16-.44A40.55,40.55,0,0,0,160,88.69c2.67,3.66,4.15,7.92,6.09,12,1.18,2.43.42,3-2.09,3.28A273.87,273.87,0,0,0,135,108.52Z"/><path class="cls-12" d="M188,103.78A71,71,0,0,0,198.59,70.3c.15-2.08-.41-4.21-.64-6.31,3.33-.29,4.77,2,6.14,4.46a103.51,103.51,0,0,1-6.56,27.9c-1.41,3.5-2.53,7.88-7.86,7.57Z"/><path class="cls-37" d="M57.94,90.76c-.8,4.81-5.12,7.45-7.13,11.58-3.2,6.53-6.25,13-5.83,20.53a1.07,1.07,0,0,1,.08,1.24,37.43,37.43,0,0,1-4.21,3.63,1.82,1.82,0,0,1-2.15-.12c-1.53-2.05-1.36-4.45-1.1-6.72.9-8.15,2.5-16.08,8.26-22.46A56.31,56.31,0,0,1,57.94,90.76Z"/><path class="cls-25" d="M105.26,169.68c-16,2.44-29.51-2.49-40.81-13.9-1.16-1.16-2.53-2.21-2.53-4.09a5.23,5.23,0,0,1,3-1.95,6.46,6.46,0,0,1,3.71,2.3c8.8,9,19.32,13.53,32.05,12.29a20.29,20.29,0,0,1,2.46.14A12.57,12.57,0,0,1,105.26,169.68Z"/><path class="cls-38" d="M173,118.72a38.23,38.23,0,0,1-16.23,10.9c-6.34,2.24-12.62,4.89-19.5,5.36a5.62,5.62,0,0,0-4.39,2,1.28,1.28,0,0,1-1.47-.53c-1.05-2.72-1.52-5.38.73-7.79,14.06,1.44,25.46-4.69,36.14-12.78.92-.7,1.55-1.76,2.7-2.17A10,10,0,0,1,173,118.72Z"/><path class="cls-11" d="M119.89,209.78c-7.38-1.66-15.22-.43-22.35-3.17-3.6-1.38-8.51-.21-10.61-4.89a19.18,19.18,0,0,1,6-3.9,70.13,70.13,0,0,0,28.11,3.78l1,1.77Z"/><path class="cls-39" d="M160,88.69c.36,3.17-2.14,4.63-3.93,6.46a37.71,37.71,0,0,1-17.3,9.91c-2.57.72-2.86-.38-2.83-2.33,0-.65,0-1.3,0-1.94a7.91,7.91,0,0,1,2.34-4.49,15.59,15.59,0,0,1,2.42-2.09c1.24-.74,2.56-1.32,3.85-2a4.74,4.74,0,0,1,2.4-.44,22.56,22.56,0,0,0,7-3,5.88,5.88,0,0,1,3.86-2.43,1.31,1.31,0,0,1,1.17.47Z"/><path class="cls-40" d="M177,101.77a12.06,12.06,0,0,1-2.08-5c2.47-6,5.79-11.55,7.13-18,1.09-5.26,1.81-10.45,1-15.78,2.29-1.53,4.62-.23,6.93-.09,1.9,2.08,1.55,4.65,1.33,7.07a65.57,65.57,0,0,1-8.71,27.62C181.32,99.71,180.11,102,177,101.77Z"/><path class="cls-11" d="M54.71,182.85a26.63,26.63,0,0,1-3.76-9,3.19,3.19,0,0,1,3.91-1.5c7,7.26,14.13,14.31,23.18,19a3.74,3.74,0,0,1,2.17,2.56l-5.29,3.83C67.27,196.44,62.31,191,57.16,186,56.24,185,55.8,183.67,54.71,182.85Z"/><path class="cls-41" d="M82.06,51.81c0-1.79-.55-3.65,2.27-4,16.55-2.29,32.6-1.32,47.6,6.95l-10.7,1.94c-3.79-2.6-7.73-4.8-12.58-4.44-7.31,0-14.6-.06-21.88.55C85.1,52.91,83.44,53.07,82.06,51.81Z"/><path class="cls-42" d="M203.85,160.83a7,7,0,0,0,2.26-.85c10.51-9.6,20-20.06,27.28-32.38a9,9,0,0,0,.58-2.86,12.75,12.75,0,0,1,2.1,6.85,126,126,0,0,1-26.22,30.26C207.82,161.7,205.68,162.16,203.85,160.83Z"/><path class="cls-43" d="M166.92,80.93c4.26-5.11,7-11.5,12.9-15.23,2.52,0,2.42,2,2.34,3.51a50.47,50.47,0,0,1-5.64,20.38c-.73,1.42-1.73,2.92-3.84,2.33Z"/><path class="cls-44" d="M229.92,177.79l-4,12c-4.63,3.11-9.22,6.28-13.9,9.3-2.34,1.52-4.75,3-7.76,2.69-.11-1.66-.23-3.32-.34-5,.23-.43.31-1.05.67-1.32,8.06-6,16.07-12.16,24.41-17.84C229.22,177.48,229.61,177.64,229.92,177.79Z"/><path class="cls-45" d="M140.9,149l4.14,1c3.34.55,2.32,2.68,1.37,4.38-2.6,4.61-5.78,8.77-10.38,11.63-5.23,2-10.52,3.86-15.66,6.08-2.81,1.22-4,.47-4.38-2.35a55.22,55.22,0,0,0,22.26-18.65A4.44,4.44,0,0,1,140.9,149Z"/><path class="cls-46" d="M229.92,177.79a230.73,230.73,0,0,1-26,19c-1.15-2.22-1-4.63-1-7,6.8-5.54,14.11-10.41,21-15.78a22.15,22.15,0,0,1,7.05,1.9Z"/><path class="cls-47" d="M171,113.7c-.38,3.3-3.2,4.39-5.42,6-8.05,5.88-17.2,9.1-26.89,10.85-1.94.35-4.8,1.59-5.75-1.89-.81-1.38-1.08-2.58,1-3,2.82,2.66,5.83.41,8.42-.18a56.11,56.11,0,0,0,21.29-10c.45-.34,1.92-.44,1-1.56-.29-.37-1.24-.2-1.9-.28C165.51,112.87,168.24,112,171,113.7Z"/><path class="cls-48" d="M133.93,125.73a3.13,3.13,0,0,0-1,3c-1.65,2.48-.45,5.28-.87,7.89a9.06,9.06,0,0,1-1.08,7.61A36.23,36.23,0,0,1,117,158.12c-2,1.11-4.2,2.61-6-.33l-.87-2c.69-2.33,2.8-3.21,4.58-4.38,10.24-6.73,14.75-16.34,14.44-28.41,0-1.2-.09-2.33.79-3.28,1.44-1.17,3.28-1,4.94-1.52C135.32,120.78,134.08,123.19,133.93,125.73Z"/><path class="cls-49" d="M218.92,117.93a123.29,123.29,0,0,1-14.52,19.52c-3.47,3.87-7.76,6.71-11.4,10.32-.61-2-1.23-4-1.84-6,5.8-1,8.4-6.13,11.84-9.82,4.21-4.52,7.34-10,10.94-15.13C215.73,116.59,217.29,117.4,218.92,117.93Z"/><path class="cls-50" d="M77,217.78c7,.79,13.15,4.24,20.09,5.42a95.9,95.9,0,0,0,17.78,1.59,8.64,8.64,0,0,1-.84,5,4.35,4.35,0,0,1-2.66,1.27c-9.81-.42-19.59-1-28.32-6.3A35.92,35.92,0,0,1,77,217.78Z"/><path class="cls-28" d="M103.15,164.47c-5.9,2.72-11.93,1.65-17.65-.12a39.75,39.75,0,0,1-20.57-14.61l4-2.67c2.09.83,3.31,2.71,4.93,4.11,6.61,5.72,14.14,9.15,23,9.23,1.82,0,3.67,0,5.15,1.34C103,162.43,103,163.47,103.15,164.47Z"/><path class="cls-47" d="M177,101.77c7.42-6.71,9.71-15.89,11.83-25.07A45.13,45.13,0,0,0,190,62.92c1.4-.09,2.82-.28,4.05.66a66.2,66.2,0,0,1-8.66,34.52c-1.74,3.13-3.68,5.4-7.62,4.77Z"/><path class="cls-51" d="M197.79,243.06l-2.08.91c-6-4.59-7.89-11.57-10.64-18.05,12.89-1.8,12.9-1.8,12.9,11.2C198,239.1,197.86,241.08,197.79,243.06Z"/><path class="cls-52" d="M82.88,98.79c-13,5.73-19.84,23.73-13.74,36.1A5.63,5.63,0,0,1,66,136.8c-2.7-.19-3-2.49-3.15-4.26-.49-6.7-1.24-13.47,1.59-19.92,3.67-6.41,8.78-11.83,12.63-18.13,1.34-1.2,2-3.43,4.43-3.08Z"/><path class="cls-53" d="M155.89,172.52c-7.22,9.77-17.09,16.08-27.84,21.24l-2.82-5a193.62,193.62,0,0,0,21.68-14.18A25.49,25.49,0,0,1,155.89,172.52Z"/><path class="cls-20" d="M39.13,91.9c-1.83-1.32-.35-2.2.4-3.21,9.55-12.81,21.69-21.86,37.32-25.9.31,2,.61,4,.92,5.93a21.76,21.76,0,0,0-11.83,3A72.32,72.32,0,0,0,46.08,87.17,30.16,30.16,0,0,1,39.13,91.9Z"/><path class="cls-54" d="M92.92,185.78l-4.89,3c-2.31,1.17-4.2-.16-6.09-1.11a67.46,67.46,0,0,1-16.79-12.42c-1.28-1.25-2.75-2.52-2.49-4.65A3.37,3.37,0,0,1,64.3,169c2.6-.74,5.17-1.05,7.59.59,1.69,4.51,5.93,6.33,9.47,8.89C85.07,181.14,89.62,182.48,92.92,185.78Z"/><path class="cls-55" d="M45.86,98.44C42.35,106.62,38.69,114.76,39,124c0,1.31-.21,2.67.71,3.82,1,2.84-.75,4.12-2.9,5.19a43,43,0,0,1-2.9-13c-.81-5.42-.23-10.56,3.13-15.11A35.27,35.27,0,0,1,45.86,98.44Z"/><path class="cls-56" d="M204.94,115c-3.67,7.79-9.69,13.57-16.19,18.93l-2.61-8.06a58.54,58.54,0,0,0,9.81-12C199,113.47,202,114.35,204.94,115Z"/><path class="cls-57" d="M181,141.63a12.33,12.33,0,0,1,1.93,6.11c1.12,2.25-.45,3.4-2,4.37-3.33,2.13-6.61,4.37-10.46,5.49a4.73,4.73,0,0,1-1.5.05c-2.71-.8-4.54-2.8-6.39-4.78a2.47,2.47,0,0,1,0-1.45C167.68,146.07,174.16,143.47,181,141.63Z"/><path class="cls-58" d="M158.18,86.9a7.29,7.29,0,0,1-4.24,1.89c-3.89-4.06-7.52-8.41-11.73-12.11-5.7-5-11.43-10.21-19.56-11,1.54-1.14,3.34-1,5.1-1,4.16-1.22,7.65.09,11.16,2.4C146.81,72.31,152.87,79.22,158.18,86.9Z"/><path class="cls-59" d="M46.08,87.17C46.83,81.64,52,80,55.46,77A46.7,46.7,0,0,1,73.14,67.5c2.1-.59,3.43-.51,4.63,1.22.22,1.22-.46,1.82-1.48,2.24C65.72,75.43,56.08,81.64,46.08,87.17Z"/><path class="cls-57" d="M216.87,108.82a27.71,27.71,0,0,1-9-2c3.44-4.29,5.24-9.35,6.78-14.53.6-2,.56-4.27,2.41-5.74a39.17,39.17,0,0,1,6,10.92c1.15,3.86-.75,7-2.62,10C219.7,108.72,218.62,109.84,216.87,108.82Z"/><path class="cls-60" d="M98,194.91c4.05-2.86,8.73-4.5,13.08-6.78,1.87-1,2.93-.64,3.79,1.32,1.25,2.84,2.72,5.59,4.1,8.38,0,.16,0,.4,0,.48-3.8,3.53-18.54,2.12-21.21-2C97.37,195.79,97.77,195.35,98,194.91Z"/><path class="cls-61" d="M79.93,206.75c8,4.48,16.72,6.6,25.65,8,4,.62,8.15.71,12.23,1l-1.09,3c-13.11.58-25.41-2.76-37.38-7.73-1.08-.45-2.26-.62-2.37-2.1Z"/><path class="cls-62" d="M224,174c-2.67,5.17-8,7.42-12.29,10.68-2.6,2-5,4.87-8.75,5.1-1-1.88-1-3.93-1-6,1.77-3.19,5.23-4.4,7.83-6.62,1.76-1.5,3.66-2.8,4.26-5.21Z"/><path class="cls-63" d="M102.07,161.75c-12.12,1-22.49-2.71-31-11.4-.93-.94-2-1.79-2-3.28l4-2.29c3.49,2.18,5.66,5.9,9.5,7.78a37.46,37.46,0,0,0,17.67,3.95A10.77,10.77,0,0,1,102.07,161.75Z"/><path class="cls-64" d="M172.68,91.92c5.08-4.46,5.82-10.88,7.1-16.86.62-2.92,2.88-6.26,0-9.36l2.29-2.9A2.06,2.06,0,0,1,183,63,4.38,4.38,0,0,1,185,67.22c-.89,10.7-2.18,21.24-10,29.57C174.19,95.17,173.43,93.55,172.68,91.92Z"/><path class="cls-65" d="M129.92,119.68c2.86,15.74-5.49,29.11-19.81,36.07l-1.42-3.88c.9-1.72,2.71-2.33,4.18-3.35,8-5.49,12.62-12.82,12.7-22.71,0-1.81,0-3.66,1.38-5.1A4,4,0,0,1,129.92,119.68Z"/><path class="cls-66" d="M92.92,185.78c-7.67-2.46-13.93-7.34-20.33-12-1-.73-2.27-1.8-.45-3.12,1.65-1.41,3.23-.88,4.8.16l5,1.76c4.14,1.91,7.48,5.31,12.13,6.32,1.9.41,2.95,2,3.55,3.83C96.53,184.46,94.63,185,92.92,185.78Z"/><path class="cls-67" d="M127,120.71c1,12.39-3,22.4-13.74,29.27a10,10,0,0,1-4.52,1.89c-.53-1.35-1.06-2.71-1.58-4.06,9-5,14.83-12,14.6-22.88A4.05,4.05,0,0,1,123,121.8,5,5,0,0,1,127,120.71Z"/><path class="cls-20" d="M80.21,193.94a77.85,77.85,0,0,1-23-17.37c-1-1.08-2.25-2-2.28-3.66a2.16,2.16,0,0,1,1.25-1.74,3.88,3.88,0,0,1,2.9,0A123.39,123.39,0,0,0,85,190.79,12.29,12.29,0,0,1,80.21,193.94Z"/><path class="cls-68" d="M196.78,104.85a4.25,4.25,0,0,0,4.38-2.45c4.42-8.7,7.91-17.64,7.79-27.61,2.65,1.67,3.55,4.57,5,7.08-.3,8.78-3.56,16.5-8.51,23.6a1.83,1.83,0,0,1-2.64.38C200.75,105.75,198.63,106.13,196.78,104.85Z"/><path class="cls-69" d="M74.26,132c-1.11-2.57-3.78-4.87-2.75-7.85,2.31-6.73,3.89-13.94,10.2-18.53,1.79-1.31,2.17.64,3.16,1.18l.89,3C80,115.26,78,122.2,78,129.89A7,7,0,0,1,74.26,132Z"/><path class="cls-70" d="M214,172c2.4,1.54.73,2.69-.47,3.69-3.64,3-7.31,6.05-11.62,8.14-.87-3.53-1.65-7.08-2.63-10.57-.8-2.86.36-3.69,3-3.26C206.18,170.62,210.09,171.3,214,172Z"/><path class="cls-71" d="M54.71,182.85c6.55,5.23,12.59,11.15,20.21,14.92-8.6,7.33-8.58,7.32-14.3-2.42A57.88,57.88,0,0,1,54.71,182.85Z"/><path class="cls-69" d="M123,121.8c1,10.46-2.51,18.89-11.38,24.88-1.38.93-2.61,2.18-4.46,1.13l-1-3a5.94,5.94,0,0,1,2.65-3.42c6-4.37,8.9-10.34,9-17.73A10.22,10.22,0,0,1,123,121.8Z"/><path class="cls-72" d="M11,118.91C12.17,108.43,15.7,99,20.19,90,25.3,102,19.38,110.69,11,118.91Z"/><path class="cls-73" d="M146.91,174.6c-5.83,6.86-12.89,11.85-21.68,14.18-3.27-5.53-3.3-5.59,2.4-8C133.88,178.21,140.16,175.66,146.91,174.6Z"/><path class="cls-74" d="M202.8,105.85c3.33-2.33,4.85-6,6.3-9.47,2-4.69,3.26-9.66,4.85-14.51A9.1,9.1,0,0,1,217,86.56c-.19,6.61-3.36,12.29-5.63,18.25-.64,1.67-2,2.08-3.56,2S204.32,107,202.8,105.85Z"/><path class="cls-75" d="M76.94,170.86l-4.8-.16c-2.58-1.64-5.44-.56-8.16-.85-4.23-1.78-6.67-5.57-9.69-8.7-1.59-1.65-.9-3.24.58-4.62a9.07,9.07,0,0,1,4.05-2.82C60.74,159,65,161.9,69.23,165,71.83,166.9,75.09,168,76.94,170.86Z"/><path class="cls-28" d="M111,157.79c.9.33,1.69,1,2.8.57C120.54,156,132.59,144,132,136.57l.85.4a8.47,8.47,0,0,0,1.34,5.81,6.24,6.24,0,0,0-.16.75c.89,1.68.36,3.21-.52,4.68-3.95,6.6-9.72,11.19-16.38,14.77-1.36.73-2.83,1-4.16-.19A10.61,10.61,0,0,1,111,157.79Z"/><path class="cls-76" d="M91.74,100.86a3.59,3.59,0,0,1-.85-3c-.35-2,1.29-2,2.47-2.32,9.34-2.44,23.77,3.3,29,11.52.87,1.39,1.88,2.83.63,4.55l-4,1.14c-5.12-6.15-11.11-10.7-19.49-11.4C96.88,101.16,94.19,102.68,91.74,100.86Z"/><path class="cls-69" d="M91.74,100.86c8.4-2.06,15.9-.26,22.64,5.13,2.26,1.82,4.17,3.76,4.57,6.78a6.91,6.91,0,0,1-3.87,1.32,7.25,7.25,0,0,1-3.17-2.3,19.73,19.73,0,0,0-14.28-6c-1.63,0-3.35.35-4.7-1C91.86,103.69,91.87,102.25,91.74,100.86Z"/><path class="cls-24" d="M140.9,149c-4.77,8.68-11.94,14.93-20.32,19.92-1.38.82-2.81,1.94-4.59.86-.42-1-.85-1.95-1.27-2.93,2.68-3,6.58-4.33,9.7-6.79,4.88-3.85,8.44-8.82,12.54-13.33l2.77,1.15Z"/><path class="cls-77" d="M110.08,50.84c4.46.5,9.12.64,11.15,5.82l-12.24,3c-2.37-1.41-5.07-1.14-7.63-1.52s-4.93-.86-5.65-3.86c2.65-3.36,6.67-2,10-2.91C107.14,51,108.71,51.69,110.08,50.84Z"/><path class="cls-78" d="M196,113.84c-.35,4.3-6.28,11.55-9.81,12l-4.94-12.67A39.76,39.76,0,0,1,196,113.84Z"/><path class="cls-51" d="M113.73,237.85l.12,6.89c-6,5.13-6,5.16-11.53-.14-2.26-2.18-4.4-4.49-6.59-6.74,1.62-1.84,3.85-1.7,5.92-1.53C105.69,236.67,109.78,236.76,113.73,237.85Z"/><path class="cls-46" d="M83,224.76c10.2,2.47,20.33,5.31,31,5-.06,1.33-.11,2.66-.17,4a6.32,6.32,0,0,1-5.09,1.54c-6.47-.36-12.9-1-19-3.47A32.63,32.63,0,0,1,83,224.76Z"/><path class="cls-79" d="M95.89,54.77c3.34,2.89,7.77,1.47,11.51,2.87,1.12.42,2.37.25,1.59,2-2.66.8-5.2,2-8,2.16-6-.06-12,1.55-18,0-.42-1.71-1.19-3.36-.84-5.19C86.41,53.52,91.1,53.76,95.89,54.77Z"/><path class="cls-80" d="M123,111.63c-3.26-9-16.49-16.68-25.94-15-2,.37-4.4-.72-6.12,1.23-1-1.13-1-2.58-1.12-4l.54-.56c13.61-4,24.22,1.22,33.26,10.93,1.57,1.67,3.84,3.47,2.38,6.43Z"/><path class="cls-81" d="M137,146.74c-4.52,9.9-12.26,16.25-22.24,20.12a7.32,7.32,0,0,1-1.72-4.07c9.94-3.23,17.18-9.41,21.06-19.26Z"/><path class="cls-20" d="M98,194.91c1.77,3.94,5.62,2.43,8.57,3.17,4.12,1,8.3,1.47,12.4-.25a6.9,6.9,0,0,1,2.14,3.77,11.94,11.94,0,0,1-9.7,1.58c-4.73-1.13-9.63-1.59-14.44-2.4-1.79-.3-3.64-.65-4-3A13,13,0,0,1,98,194.91Z"/><path class="cls-82" d="M88.69,89.88a37,37,0,0,1,40.21,15.33c.9,1.38,2.12,2.63,1.07,4.45l-3,.88c-2.3-7.54-8.23-12-14.68-15.08-6.93-3.37-14.49-5.67-22.24-1.74l-.3.18C88.71,92.75,88.87,91.27,88.69,89.88Z"/><path class="cls-83" d="M85.24,250.19c-.94-4.6-4-8.53-4.27-13.34q9.42,8.46,18.85,16.9c1,.85,1.14,1.55,0,2.33A59,59,0,0,1,85.24,250.19Z"/><path class="cls-84" d="M81.47,91.41,78,94.92c-9.63,4.88-16.58,11.92-18.56,23A3.44,3.44,0,0,1,57,120.36a2.13,2.13,0,0,1-2-.42c.11-12.39,13.95-28.46,25.94-30.15Z"/><path class="cls-49" d="M85,190.79c-7.28-1.47-12.56-6.41-18.11-10.74-3-2.32-5.29-5.46-7.91-8.23a2.14,2.14,0,0,1,1.3-1.66,2.44,2.44,0,0,1,2.7.61c6.83,8.14,14.91,14.54,25.07,18Z"/><path class="cls-85" d="M56.15,208.74c-10.82-2.78-18-10.66-18.21-20,3.68-.36,4.8,3.08,7.05,4.8,2.53,1.95,4,4.87,6.18,7.15A31.79,31.79,0,0,1,56.15,208.74Z"/><path class="cls-86" d="M90.07,93.72c.84-2.94,3.49-2.75,5.61-2.86,13.37-.73,23.37,5.47,31.41,15.6,1.17,1.48.73,2.74-.1,4.08l-1,.16c-5.52-12.42-18.11-16.84-28.43-17.88C95,92.56,92.85,95.8,90.07,93.72Z"/><path class="cls-87" d="M248.77,126.87c-.17,5.07,1.61,10,1,15.11-1,1.82-.61,4.74-3.81,4.83q-1.94-9.62-3.86-19.23c-.44-2.17.14-3.27,2.55-2.34C246.05,125.77,247.41,126.33,248.77,126.87Z"/><path class="cls-88" d="M169.88,156.82c3.54-1.94,7.05-3.92,10.62-5.8,1.4-.73,2.42-1.6,2.47-3.28a3.09,3.09,0,0,1,.58.79c3.71,11.08,3.71,11.08-7.82,11.24-1.47,0-2.95,0-4.43,0C170.12,159.11,169.32,158.3,169.88,156.82Z"/><path class="cls-44" d="M89.77,231.86c8.12-.49,15.92,3,24.08,1.93l-.12,4.06c-3.87,2.34-7.71-.14-11.57-.06-2.14,0-4.29.05-6.43.07A29,29,0,0,1,89.77,231.86Z"/><path class="cls-66" d="M181,141.63c-5.78,3.84-12.57,5.87-18.09,10.16-1.36,1.16-2.89.56-4.37.44s-3.06,0-4.59,0c-.8,0-1.6,0-2.4,0-1.55-.29-3.47,0-3.78-2.3,11.07.85,19.77-5,28.68-10.21a4.86,4.86,0,0,0,2.55-4.07C180.83,137.22,179.4,139.93,181,141.63Z"/><path class="cls-89" d="M183.85,199.79c.27-4.87,1.71-9.49,3-14.15,2.28-.13,3.56-1.94,5.23-3.11a22.51,22.51,0,0,1,2,10.07C194.35,197.9,190.8,200.41,183.85,199.79Z"/><path class="cls-65" d="M100.12,156.51c-3.52,2.86-7.37,1.18-10.75.15-6.71-2-13.43-4.52-16.42-11.88L76,143a35,35,0,0,0,23.09,10.65C100,154.36,100,155.44,100.12,156.51Z"/><path class="cls-90" d="M41,126.8a5.86,5.86,0,0,1,3.94-3.17,3.15,3.15,0,0,1,1.31,2.53c.21,7.09,2.8,13.74,3.84,20.67l-3,2a3.26,3.26,0,0,1-3.88-2.26C40.58,140.23,37.93,133.82,41,126.8Z"/><path class="cls-91" d="M76.6,59.7c-4.11-1.91-7.4.87-10.72,2.25a57.5,57.5,0,0,0-17.3,10.63A9.9,9.9,0,0,1,46,73.79a69.08,69.08,0,0,1,15-15.1c4.86-1.95,9.7-4.11,15.08-1.81Z"/><path class="cls-92" d="M158.18,86.9c-3.41-.32-4.26-3.53-5.82-5.63-5-6.64-11.53-11.28-18.31-15.75-2-1.29-4.21-.46-6.3-.81,2.17-1.28,4.58-1,6.93-1,6-.95,9.14,3.69,12.87,6.94,1.7,1.49,3,3.43,4.63,5.09A43.38,43.38,0,0,1,159,86.83l-.39.07Z"/><path class="cls-93" d="M97.67,182.77c-4-3.72-10.16-3.58-13.8-8-.61-.73-1.57-1.17-1.88-2.19,5.8.06,11.06,3,16.82,3.22,2.47,1.46,6-.82,8,2.38Z"/><path class="cls-94" d="M50,146.83c-4.53-7.11-5-15.12-5.15-23.2,0-.26,0-.51.09-.76l4-.94c1.58,1.59,1.37,3.66,1.47,5.63.28,5.72,1.37,11.21,4.38,16.19A13.16,13.16,0,0,1,50,146.83Z"/><path class="cls-95" d="M19.88,143.74c1.61.85,2.33,2.4,3.13,3.89,2,4.47,4.11,8.85,6.16,13.28l-8,5.74C20,159.06,19.18,151.44,19.88,143.74Z"/><path class="cls-96" d="M221.92,70.87q3.12,4.41,6.23,8.81c-.13,2.39.41,5.21-3.38,5.21-3.79-5.52-7.58-11-11.56-16.84C216.85,67.45,219.3,69.43,221.92,70.87Z"/><path class="cls-97" d="M224.77,84.89c2.74-.68,1.46-4,3.38-5.21a46.68,46.68,0,0,1,7.71,12.13c-.75,2.61.11,6.09-3.82,6.94Q228.4,91.82,224.77,84.89Z"/><path class="cls-67" d="M99.05,153.62c-2.25,2.66-4.78.46-6.89,0-6.69-1.4-13-3.74-16.2-10.66l2.81-1.58c5.62,4.74,12.64,6.61,19.23,9.38A3.4,3.4,0,0,1,99.05,153.62Z"/><path class="cls-98" d="M56.92,119.7l2-1.94c.78-1.55,1.58-3.05,3.65-1.53,0,7.25-.68,14.57,1.6,21.66A5.65,5.65,0,0,1,61,139.81c-1.87,1-2.9-.22-3.42-1.6C55.3,132.14,53.9,126,56.92,119.7Z"/><path class="cls-99" d="M41,126.8a46.08,46.08,0,0,0,2.81,18,6.6,6.6,0,0,0,3.31,4.08c-4.9,4.09-5,4.13-6.77-1.88-1.34-4.62-3.13-9.14-3.54-14l2.9-5.19Z"/><path class="cls-100" d="M95.89,54.77c-4.46,1.47-9.2.89-13.74,1.83-.09-1.22-.19-2.43-.29-3.64.07-.39.13-.77.2-1.15,9.29-1.72,18.67-.84,28-1C105.48,52.63,100.32,52.36,95.89,54.77Z"/><path class="cls-101" d="M51.17,200.73c-5.16-3.15-8.27-8.57-13.23-11.95-.06-3.37-.4-6.85,3-9.09Z"/><path class="cls-102" d="M182.91,217.32l0-4.53c3.63-3.61,8.77-4,13.08-6.12a5.23,5.23,0,0,1,.64,1.33c1.32,8.4,1.16,8.55-7.3,8.82C187.21,216.89,185.06,217.15,182.91,217.32Z"/><path class="cls-103" d="M240.77,101.83a73.21,73.21,0,0,1,6,18.06c-4.83-1.85-9.63-3.72-10-10C237.66,107,237.16,103.38,240.77,101.83Z"/><path class="cls-24" d="M54.8,143.75c-2.2.34-2.71-1.17-3.32-2.82a48.5,48.5,0,0,1-2.53-19l3.09-1.1,1.88.1c1.09,2.35.41,4.83.42,7.24a30.8,30.8,0,0,0,3.54,13.6Z"/><path class="cls-44" d="M196,206.67c-3.23,4.45-8.69,4.14-13.08,6.12v-6c1.25-2.37,3.54-3.4,5.84-4.28a21.1,21.1,0,0,0,6.23-3.87C196.52,201.17,195.82,204,196,206.67Z"/><path class="cls-81" d="M57.88,141.77c-3.68-.43-3.22-3.69-3.88-6-1.41-4.9-1.83-9.89-.08-14.85l1.07-1,1.93-.23c.16,5.37-.57,10.83,1.22,16,.54,1.54.37,3.81,2.86,4.06A5.78,5.78,0,0,1,57.88,141.77Z"/><path class="cls-104" d="M218,225.85c-3.58,4.62-8.33,8-12.63,11.83.15-3.45.33-6.9.42-10.35.05-2,1.12-2.46,2.87-2.52A39.57,39.57,0,0,1,218,225.85Z"/><path class="cls-105" d="M240.77,101.83c-1.9,2.4-1.28,6.06-4,8.06q-2.35-5.56-4.72-11.14c2.25-1.77,1.59-5.15,3.82-6.94A38.55,38.55,0,0,1,240.77,101.83Z"/><path class="cls-106" d="M86.8,113.79c.25.62.54,1.21.74,1.84,2.59,8.49,2.58,8.49-5.56,12.18-.16,0-.37.12-.47.06-4-2.59-1.88-6.11-1-9.08C81.32,116,82.56,112.73,86.8,113.79Z"/><path class="cls-107" d="M117.67,123.62c2.74,5.64-.36,10-3.36,14.2-2.11,3-5.15,5-8.25,7a7.08,7.08,0,0,1-1.34-3.91A5.8,5.8,0,0,1,107,138.3c4.79-3.31,6.37-8.46,7.93-13.64C115.6,123.7,116.65,123.7,117.67,123.62Z"/><path class="cls-108" d="M216.87,108.82c4.47-2.46,4.73-7.23,6.21-11.34a61.58,61.58,0,0,1,7,15.44Z"/><path class="cls-109" d="M184.76,178.9c-3.13-2.42-5.12-5.7-6.9-9.13,2.41-.27,4.84-.52,7.25-.82,3.57-.45,5.25,1.05,4.91,4.68C190.61,177.72,188.32,178.94,184.76,178.9Z"/><path class="cls-110" d="M147.81,149.85c1.21,1.08,2.77.6,4.15.92-.38,5.75-4,9.56-8,13.08a26.16,26.16,0,0,1-7.94,2.21c2.75-3.39,5.69-6.66,8.15-10.25,1.06-1.54,3.75-3.41.86-5.76Z"/><path class="cls-111" d="M98,150.77c-7.57-.75-14.65-2.5-19.23-9.38l3.12-1.79a59.13,59.13,0,0,0,14.38,6.08A10.57,10.57,0,0,1,98,150.77Z"/><path class="cls-112" d="M76,56.88,61,58.69c4.11-4.55,9.9-6.95,14.3-11.12C76.12,50.63,76,53.76,76,56.88Z"/><path class="cls-113" d="M92.93,104.8c9.17-1.16,17.1.64,22.15,9.29a3.67,3.67,0,0,1-3.1.85,39.65,39.65,0,0,0-18.11-7.12A3.51,3.51,0,0,1,92.93,104.8Z"/><path class="cls-46" d="M195,198.64c.18,2.11-.94,3.21-2.8,4-3.13,1.29-6.19,2.77-9.27,4.17.13-2.36-.59-4.83.91-7,2.14-.75,4.29-1.5,6.43-2.23,2.37-.81,4-2.18,3.74-5C195.4,194.44,194.89,196.59,195,198.64Z"/><path class="cls-114" d="M103.57,137.93c-3.16-8.35-3.16-8.35,6.18-11.25,2.44-.38,2.72,1.45,2.86,3C112.93,133.55,107.81,138.11,103.57,137.93Z"/><path class="cls-115" d="M83,61.78a34,34,0,0,1,18,0c-3.88,1.41-7.78,2.79-11.64,4.26C83.18,68.38,83.17,68.39,83,61.78Z"/><path class="cls-116" d="M246,146.81,249.8,142c.95,10.49-.82,20.77-2.38,31.06Q246.7,159.91,246,146.81Z"/><path class="cls-113" d="M86.8,113.79c-5.34,2.64-7.56,9.09-4.82,14q-2,1-4,2.08c-2.65-7.71.76-16.55,7.76-20.1Z"/><path class="cls-117" d="M93.87,107.82c7.53-1.42,13.42,1.34,18.11,7.12-1.27.75-2.42,1.8-4,1.74-2.33-.39-4.21-1.78-6.21-2.86s-4-1.38-5.88.23C94.76,112.11,93.71,110.15,93.87,107.82Z"/><path class="cls-118" d="M95.84,114.05c.06-2.38,1-4.2,3.55-2.81,3,1.6,6.47,2.42,8.54,5.44-1.33.62-2.63,1.31-4,1.86C97.39,121.23,97.38,121.22,95.84,114.05Z"/><path class="cls-119" d="M63,170.77l-2.92.06c-4.89-1.24-9.44-6.16-10-10.83a14.2,14.2,0,0,1,4.86-3.47c-1.18,2.14-.2,3.58,1.36,5.1,2.69,2.63,5.18,5.47,7.75,8.21Z"/><path class="cls-120" d="M64.14,137.89c-3.9-5.38-3.35-11.49-2.85-17.58.12-1.47.45-2.92.69-4.39-.32-3,1-4.3,4-4-2.46,8.3-3.71,16.6,0,24.9Z"/><path class="cls-121" d="M93,79.81l-5.89,4.13c-2.26-7.52-2.14-7.69,6.82-10.15,1.94-.35,4.07-1.84,5.5.89a2.42,2.42,0,0,1-.34,1.46C97.57,78.17,95.21,78.85,93,79.81Z"/><path class="cls-122" d="M50,160c2.33,4.55,6.18,7.68,10,10.83l-1.08,1-2.76.07c-5.12,1.22-5.76-3.86-8.47-6C45.59,162.77,47.42,161.24,50,160Z"/><path class="cls-117" d="M103.57,137.93c6.86-2.74,9.2-7,6.18-11.25a10,10,0,0,1,5.16-2c.09,8.27-3,13.23-10.19,16.2C104.34,139.88,104,138.91,103.57,137.93Z"/><path class="cls-123" d="M116.74,268c-2.94-.3-5.89-.52-8.81-1-1.19-.19-3.33.18-3.25-1.38.08-1.4,1.57-2.75,2.52-4.07,1.08-1.49,2.17-.8,3.36,0,2.71,1.85,5.49,3.61,8.25,5.41C118.89,268.92,117.64,268.09,116.74,268Z"/><path class="cls-124" d="M184.76,178.9c1.87-1.64,5-2.05,5.26-5.27a20,20,0,0,1,2,8.9c-.32,3.43-1.64,5.18-5.23,3.11C186.15,183.39,185.45,181.15,184.76,178.9Z"/><path class="cls-125" d="M234.78,168l6-11.08c.5,4.45,1.63,8.84.94,13.6A17.06,17.06,0,0,1,234.78,168Z"/><path class="cls-126" d="M154,150.8l4.93.23c.7,4.65-2.46,7.54-4.93,10.73a13,13,0,0,1-6,1.15C148.33,158.07,151.85,154.78,154,150.8Z"/><path class="cls-127" d="M85,138c7-4.43,7-4.42,9.41,3.55a18.15,18.15,0,0,0,1,2.16C90.17,144.45,86.55,142.46,85,138Z"/><path class="cls-128" d="M163.21,152.64c2.7.36,3.56,3.19,5.72,4.27,1.24,1.49-.11,2.14-.94,3l0,0c-1.57,1-3.44-.06-5,.77l-4,.31C158,156.93,159,154,163.21,152.64Z"/><path class="cls-129" d="M152.18,75.72c-3.62-3-7.18-6.08-10.88-9a14.49,14.49,0,0,0-6.62-3c4.85-2,8.81-1.37,11.69,3.53C148.11,70.17,150.77,72.53,152.18,75.72Z"/><path class="cls-130" d="M85,138c2.51,3.65,6.59,4.41,10.39,5.71.29.66.59,1.31.89,2-5.81.37-10.89-1-14.38-6.08C82.61,138.47,83.91,138.45,85,138Z"/><path class="cls-131" d="M163.21,152.64a16.37,16.37,0,0,0-4.23,8.28c-1.55,1-3.3.87-5,.84.71-4,3.83-6.9,4.93-10.73l4.07.76C163,152.07,163.12,152.36,163.21,152.64Z"/><path class="cls-122" d="M154,150.8c-.26,4.89-3.68,8.23-6,12.11-1.18,1-2.6.93-4,.94q4-6.54,8-13.08Z"/><path class="cls-132" d="M29.17,160.91c-4.82-3.14-5.19-8.35-6.16-13.28l8.85,11.31A4,4,0,0,1,29.17,160.91Z"/><path class="cls-133" d="M99,75.61c-.81-3-3.27-1.4-5-1.82,5.07-2.53,10.56-3.72,16-5.1a1.88,1.88,0,0,1,.41,2,6.59,6.59,0,0,1-2.89,2.19C104.51,73.49,102.41,76.71,99,75.61Z"/><path class="cls-134" d="M37,104.91c-.61,5.12-3,9.89-3.13,15.11C30.59,110.35,30.79,109.38,37,104.91Z"/><path class="cls-116" d="M40,177.79c-3-1.28-4-5.08-7.23-6.09,2.48-2.87,4.56-3.69,5.75,1C38.92,174.41,40.18,175.88,40,177.79Z"/><path class="cls-135" d="M47.72,165.86c3.44,1.15,4.53,5.59,8.47,6l-1.24,1-4,.92C49.3,171.41,48.69,168.56,47.72,165.86Z"/><path class="cls-136" d="M106.8,178.22c-2.67-.75-5.53-.88-8-2.38,3-.36,7,.9,7.2-4.22C106.61,173.78,110.26,175.58,106.8,178.22Z"/><path class="cls-137" d="M110,70.65c0-.65,0-1.3,0-2a17.06,17.06,0,0,1,8.32-2l-2.36,2c-.9,1.58-2.44,2.16-4.06,2.64A1.9,1.9,0,0,1,110,70.65Z"/><path class="cls-138" d="M168,159.87c.31-1,.63-2,.94-3a3,3,0,0,1,.95-.09c.47,1,.94,2,1.42,2.92Z"/><path class="cls-138" d="M163,160.61c1.5-1.37,3.32-.71,5-.77C166.47,160.94,164.71,160.68,163,160.61Z"/><path class="cls-139" d="M246.79,202.67l1,1a2.66,2.66,0,0,1-1.19,2.18C245.5,204.8,246.07,203.69,246.79,202.67Z"/><path class="cls-140" d="M116.74,268l2.07-1c.71.09,1.52.84,1.25,1.13C119,269.24,117.84,268.68,116.74,268Z"/><path class="cls-141" d="M382.87,134.31c-11.32,0-22.64-.11-33.95.07-3.43.05-4.1-.71-3.36-4.19,5.95-27.9,37-40.65,60.94-24.87,9,5.92,13.14,14.63,14.44,25,.37,3-.36,4.08-3.63,4C405.84,134.19,394.35,134.31,382.87,134.31Z"/><path class="cls-142" d="M781.91,78.77c4.77-3.14,9.56-2.9,13,.65,3.72,3.83,3.73,8.43,0,13.36a2.54,2.54,0,0,1-2.67-.58,5.15,5.15,0,0,1-1.93-5.29c1.31-6.09.9-6.53-5.52-6.57a10.76,10.76,0,0,1-1.5-.07A2,2,0,0,1,781.91,78.77Z"/><path class="cls-143" d="M781.91,78.77l1.08,1.1c2.58,4,1.43,8.27,1,12.5-.41.86-.88,1.66-2.05,1.43C776.53,88.76,776.53,83.83,781.91,78.77Z"/><path class="cls-144" d="M781.93,93.8,783,92.64c.37-.56,0,.25.36-.33,3.34-5.56,3.34-5.55,8-1.2a2.72,2.72,0,0,0,1.77.67l1.77,1C790.37,96.87,787,97.13,781.93,93.8Z"/><path class="cls-145" d="M111.79,70.5a8.26,8.26,0,0,1,4.1-1.74c6.69.89,12.38,4.2,17.37,8.34,5.14,4.27,10.45,8.58,13.7,14.7l-2,1c-2.63,1.34-4.09-.68-5.46-2.16-7-7.55-14.84-13.73-24.85-16.83C113.23,73.37,111.25,72.88,111.79,70.5Z"/><path class="cls-146" d="M93,79.81l5.07-3.73c17.31-2,29.54,6.76,40.2,18.9a3.22,3.22,0,0,1,.7,1.82l-3,4C125.85,85.17,110.67,80,93,79.81Z"/><path class="cls-147" d="M139,96.8c-3.86-3.59-7.44-7.54-11.63-10.68-7.93-5.93-16.78-9.69-27-9.37a8,8,0,0,1-2.3-.67,4.55,4.55,0,0,0,.87-.47c2.84-.87,5-3.19,8-3.63a53.44,53.44,0,0,1,31.17,17.2c1.46,1.58,3.7,3.08,2.92,5.89Z"/><path class="cls-148" d="M141.09,95.07C133.82,84,123.24,77.58,110.78,74c-1.45-.42-3-.4-3.78-2l3-1.33,1.84-.15c.76.61,1.43,1.53,2.3,1.77,10.93,3,19.34,9.77,26.81,17.94,1.1,1.2,2.16,2.58,4.06,2.58Z"/><path class="cls-149" d="M66,111.9a12.9,12.9,0,0,0-4,4l-3.09,1.84c-2.12-4.11,1.31-6.93,2.82-9.82,3-5.64,7.8-9.86,13.31-13.15,1-.58,2.07-1.34,3,.13C74.66,101.05,70.11,106.32,66,111.9Z"/><path class="cls-150" d="M793.16,91.78c-1.29,2.49-2.17.83-3.14-.29s-1.23-3.44-3.21-3.75c-2.49.88,1.48,6.31-3.8,4.9q0-6.39,0-12.77c2.21-1.08,4.55-.74,6.8-.36,3.29.55,5,3.93,2.73,6.18C789.62,88.54,792,89.88,793.16,91.78Z"/><path class="cls-144" d="M788.23,85.11c-1.64.18-2.37-.29-2.37-1.81s1-1.79,2.22-1.7,2.48.17,2.59,1.6C790.81,85.08,789.17,84.91,788.23,85.11Z"/></g></g></svg>