<svg xmlns="http://www.w3.org/2000/svg" viewBox="0 0 198.64 199.55"><defs><style>.cls-1{fill:#27a2d0;}.cls-2{fill:#bde0d9;}.cls-3{fill:#ddeeea;}.cls-4{fill:#0494c8;}.cls-5{fill:#0092c7;}.cls-6{fill:#71bc6c;}.cls-7{fill:#0995c9;}.cls-8{fill:#b1dbd1;}.cls-9{fill:#6eba68;}.cls-10{fill:#77be72;}.cls-11{fill:#9cd0b2;}.cls-12{fill:#0c97c7;}.cls-13{fill:#94ccad;}.cls-14{fill:#77be7c;}.cls-15{fill:#2ca5d0;}.cls-16{fill:#9cd0b8;}.cls-17{fill:#badfd2;}.cls-18{fill:#8fc992;}.cls-19{fill:#2fa5d1;}.cls-20{fill:#9bcfa2;}.cls-21{fill:#96cd9a;}.cls-22{fill:#9fd1a9;}.cls-23{fill:#a3d3af;}.cls-24{fill:#aad6bc;}.cls-25{fill:#a7d4b5;}.cls-26{fill:#27a5d2;}.cls-27{fill:#93c84d;}.cls-28{fill:#b0d680;}.cls-29{fill:#aad36d;}.cls-30{fill:#a1d06a;}.cls-31{fill:#e8f2d5;}.cls-32{fill:#28b4dd;}.cls-33{fill:#e9f2d4;}.cls-34{fill:#e7f1cf;}.cls-35{fill:#0096cb;}.cls-36{fill:#009bcf;}.cls-37{fill:#009fd2;}.cls-38{fill:#0099cd;}.cls-39{fill:#04abda;}.cls-40{fill:#10a8d6;}.cls-41{fill:#0aaddb;}.cls-42{fill:#bee3ca;}.cls-43{fill:#cbe2a7;}.cls-44{fill:#d1e5af;}.cls-45{fill:#c8e09e;}.cls-46{fill:#26b1db;}.cls-47{fill:#26add9;}.cls-48{fill:#cae7d0;}.cls-49{fill:#b7d984;}.cls-50{fill:#c2de95;}.cls-51{fill:#bddc90;}.cls-52{fill:#bbda8a;}.cls-53{fill:#c6df9c;}.cls-54{fill:#c9e1a1;}.cls-55{fill:#c8e1a6;}.cls-56{fill:#d1e6b7;}.cls-57{fill:#d1e5b1;}.cls-58{fill:#cbe3ac;}.cls-59{fill:#b0d67a;}.cls-60{fill:#abd375;}.cls-61{fill:#98ca4e;}.cls-62{fill:#9bcc54;}.cls-63{fill:#9fcd5a;}.cls-64{fill:#e6f0ce;}.cls-65{fill:#e1eec8;}.cls-66{fill:#b4d780;}.cls-67{fill:#b9d985;}.cls-68{fill:#bbda89;}.cls-69{fill:#02a0d1;}.cls-70{fill:#add474;}.cls-71{fill:#b1d67a;}.cls-72{fill:#a6d16f;}.cls-73{fill:#28acd6;}.cls-74{fill:#acd47d;}.cls-75{fill:#2ba9d0;}.cls-76{fill:#a2cf6c;}.cls-77{fill:#039acc;}.cls-78{fill:#02a4d4;}.cls-79{fill:#a4d064;}.cls-80{fill:#a0ce5f;}.cls-81{fill:#02aad9;}.cls-82{fill:#d8e9bd;}.cls-83{fill:#02a6d6;}.cls-84{fill:#bddc97;}.cls-85{fill:#d6e8b8;}.cls-86{fill:#dcebc2;}.cls-87{fill:#e1eeca;}.cls-88{fill:#c7e1a8;}.cls-89{fill:#c7e4c5;}.cls-90{fill:#bedb8c;}.cls-91{fill:#02a6d7;}.cls-92{fill:#c4de96;}.cls-93{fill:#cae2a3;}.cls-94{fill:#c0dc90;}.cls-95{fill:#c7e09c;}.cls-96{fill:#d8e8b8;}.cls-97{fill:#d3e6b4;}.cls-98{fill:#c8e2aa;}.cls-99{fill:#48bcc9;}</style></defs><title>Asset 4</title><g id="Layer_2" data-name="Layer 2"><g id="Layer_1-2" data-name="Layer 1"><path class="cls-1" d="M0,90c3.53-4.2,3.5-10.52,8.3-14,3.43,1.44,5.17,4.7,7.66,7.15a6.77,6.77,0,0,1,.54,2.35C14.07,96.42,20,104.87,24.86,113.6a14.6,14.6,0,0,1,1,4.79,55.5,55.5,0,0,0,.54,8.25,6.32,6.32,0,0,1-.26,2.29c-2.15,2.54-3.71,5.75-7.34,6.69-9-6.38-14-15.71-18.77-25.25Z"/><path class="cls-2" d="M105.28,0c7.61,3.45,15.88,5.68,22,11.84-1.16,1.37-1.64,3.14-2.65,4.6-1.47,2.15-2.65,4.71-6,4.36-3.5-2.92-7.65-4.88-11.24-7.68C105.18,9.64,100.6,7.51,101,2.38c.42-1.25,1.69-1.6,2.55-2.38Z"/><path class="cls-3" d="M103.58,0l-1.71,1.75c-2.9,2.12-5.78,2.53-8.58-.18,0-.52.07-1,.1-1.57Z"/><path class="cls-2" d="M137.12,23.67c16.24,13.38,30,29.3,45,43.9,3.72,3.62,8.6,6.49,9.92,12.14-5.91,2.81-10.21-2.35-15.4-3.08a16.12,16.12,0,0,1-4.28-2.55c-13.06-12.8-25.92-25.81-38.84-38.76-2.34-2.35-5.22-4.44-5.41-8.24.45-2.35,2.17-3.48,4.19-4.33A5.05,5.05,0,0,1,137.12,23.67Z"/><path class="cls-4" d="M79.65,194.06c-9.52-4.43-15.56-12.91-22.85-19.89-6.72-6.44-13-13.31-19.52-20-.44-4,.83-6.64,5.3-6.81C53.35,161.6,67,173.09,79.29,185.87c1.88,1.95,4.86,3.19,4.56,6.65C83,194.49,81.41,194.54,79.65,194.06Z"/><path class="cls-5" d="M169.85,145.73l-37.18,36.56c-1.62.22-3.23,1-4.87.08-2.34-3.3.63-5,2.25-6.92,3-3.52,6.52-6.67,9.77-10,8.89-7.72,15.72-17.67,25.9-24C168.47,141.54,171.54,141.36,169.85,145.73Z"/><path class="cls-6" d="M79.65,194.06l3.76-1.78c3-3.73,7.71-3.4,11.61-5a11.31,11.31,0,0,1,4,0c5.12,1.71,12.85.43,11.34,9.81C99.61,201.47,89.44,199.75,79.65,194.06Z"/><path class="cls-7" d="M196.86,90.15c4.51,14.13,0,26.17-8.63,37.25-3.17,1.67-3.91-.45-4.47-2.86.29-5,3.6-8.81,5-13.37,3.37-5.91,1.69-12.8,3.63-19C193.45,90.54,194.72,89.38,196.86,90.15Z"/><path class="cls-8" d="M196.86,90.15l-3.27,1.93a14.3,14.3,0,0,1-8.63,5.4,4.16,4.16,0,0,1-3.8-2.38,3.51,3.51,0,0,1,.38-2.25c3-3.62.52-6.51-1.14-9.61-1.47-2.75-4.84-4.67-3.87-8.52l15.56,5A18.66,18.66,0,0,1,196.86,90.15Z"/><path class="cls-9" d="M42.39,147.58c-2.76,1.38-3.62,4.24-5.11,6.6a44.49,44.49,0,0,1-9.83-9.78c-.92-3.84-1.24-7.65.51-11.37,9-.82,11.42,6.65,15.33,12.24A3.11,3.11,0,0,1,42.39,147.58Z"/><path class="cls-10" d="M110.38,197c-.42-7.82-7.88-5.69-11.89-8.44A5,5,0,0,1,100.4,187c4.41-1.2,8.25-4.42,13.19-3.81,4.57,1,8.46,2.73,8.57,8.32C118.17,193.22,115.47,197.68,110.38,197Z"/><path class="cls-11" d="M183.77,130.92l-8.65,8.71a8.82,8.82,0,0,1-6.31-6.86c0-2.74,1.71-4.54,3.53-6.27a7,7,0,0,1,4.48-1.85A8.75,8.75,0,0,1,183.77,130.92Z"/><path class="cls-12" d="M28.54,132.59c0,4,1.53,8.08-1.09,11.81a36.19,36.19,0,0,1-8.68-8.78c2-2.27,2.71-5.85,6.33-6.6A3.49,3.49,0,0,1,28.54,132.59Z"/><path class="cls-13" d="M169.78,132.33l5.34,7.3q-2.62,3.06-5.27,6.1c-.51-2.87-2.58-3.4-5-3.35-2,.32-3.9.34-5.45-1.26.61-5,5.07-6.46,8.21-9.14A2.43,2.43,0,0,1,169.78,132.33Z"/><path class="cls-14" d="M122.16,191.5c-2.28-3-4.4-6.18-8.67-6.54,3.52-5.7,8.64-4.78,13.88-3.37l5.3.69C129.59,185.85,126.71,189.63,122.16,191.5Z"/><path class="cls-15" d="M137.12,23.67l-4.73.08c-5.37-.19-8.14-3-8.38-8.34.11-2.12,1-3.51,3.32-3.57C130.15,16.14,135.52,18.35,137.12,23.67Z"/><path class="cls-16" d="M183.77,130.92l-7.27-5.3c-.77-3.33,1.28-5.29,3.5-7.18,4.17-.24,4.12,3.12,4.91,5.76a3.21,3.21,0,0,0,3.32,3.2Q186,129.15,183.77,130.92Z"/><path class="cls-17" d="M93.29,1.57l8.58.18c.15,4.81,5.28,6.26,6.8,10.14a3.81,3.81,0,0,1-3.22,1.16c-3.74-.69-7.49-1.27-11.23,0a16.92,16.92,0,0,1-4.5,1.15c-2.29-.39-3.3-2.11-4.2-4A9.8,9.8,0,0,1,85,7.87a5.51,5.51,0,0,1,1.64-4.49C88.34,1,91,1.94,93.29,1.57Z"/><path class="cls-18" d="M15.19,83.32C10.77,82.88,9.8,79.2,8.3,76A21.17,21.17,0,0,1,17,66.23c4.79-.63,5.91,3.08,7.48,6.27a5.52,5.52,0,0,1,0,2.36C22.08,78.46,19.53,81.88,15.19,83.32Z"/><path class="cls-19" d="M86.59,3.38l-.17,5.13C80,13.94,72.83,18.62,67.09,24.93c-2.63.38-5.48,1.25-6.09-2.77C68.5,14.5,75,5.51,86.59,3.38Z"/><path class="cls-20" d="M25.48,57.74c3.12-3.67,6.05-7.54,10.19-10.19,4.81-.57,6.44,2.72,7.77,6.39-.12,3.7-2.85,5.73-5.16,8a7.27,7.27,0,0,1-4.39,1.86C30.18,63.06,27.57,60.75,25.48,57.74Z"/><path class="cls-21" d="M25.48,57.74c4-.17,5.37,3.93,8.53,5.1.91,1.57,0,2.75-.84,4-1.15,1.39-2.44,2.64-3.72,3.92-1.68,1.23-3,3.45-5.63,2.3-2.54-2-3.47-5.61-6.83-6.79C19.61,63.19,21.85,59.76,25.48,57.74Z"/><path class="cls-22" d="M42.47,54.39a17.34,17.34,0,0,0-6.8-6.84c2-2.56,3.71-5.34,6.79-6.79,5.39-2.23,6.69,1.71,8.16,5.4a7.75,7.75,0,0,1-.23,2.49,13.18,13.18,0,0,1-5.71,6.14A2.27,2.27,0,0,1,42.47,54.39Z"/><path class="cls-23" d="M49.27,47.59c-.5-4-2.75-6.34-6.81-6.83,1.94-2.59,3.73-5.33,6.79-6.8,5.57-2.08,7,1.64,8.13,5.78-.05,2.83-1.65,4.82-3.56,6.65C52.47,47.41,51.11,48.43,49.27,47.59Z"/><path class="cls-24" d="M61,22.16c2,2.3,4.54,1.32,6.94,1.33,1.81-1,3.12-.46,4.07,1.28.54,2.82-1.26,4.6-2.89,6.46-1.76,1.63-3.46,3.39-6.14,3.33C59.68,33,57.09,30.82,56,27.17Z"/><path class="cls-25" d="M56,27.17A17.47,17.47,0,0,1,62.85,34a2.15,2.15,0,0,1,.55,1.41c0,.53-.06.79-.15.79a11.68,11.68,0,0,1-5,5,2.28,2.28,0,0,1-2.2-.42q-.73-6.07-6.8-6.83A22.44,22.44,0,0,1,56,27.17Z"/><path class="cls-26" d="M23.86,113.79c-7-8.53-13-17.37-8.44-29.23,5.74-2.74,10.91-.26,16.15,1.73a8.54,8.54,0,0,1,1.82,1.83,14.67,14.67,0,0,1,2.38,8.44,15.63,15.63,0,0,1-2.21,6.88c-1.43,2.26-3.48,4.06-4.8,6.42C27.38,111.48,27,114.36,23.86,113.79Z"/><path class="cls-27" d="M28.54,132.59,25.1,129a8.13,8.13,0,0,0,.14-1.47c-.67-2.77,1-3.74,3.26-4.2a66.93,66.93,0,0,1,19.58,19.51c-.78,3-2.61,4.13-5.62,3.21C38.5,140.87,34.25,136,28.54,132.59Z"/><path class="cls-28" d="M32.15,88.43C27,85.3,21,85.71,15.42,84.56a5.77,5.77,0,0,0-.23-1.24,27.13,27.13,0,0,1,8.56-8.63C27.87,78.47,34,81,32.15,88.43Z"/><path class="cls-29" d="M23.86,113.79l3.68-5.11c4.11-2.86,6.75.26,9.64,2.36a3.68,3.68,0,0,1,.86,2.15c-1,3.56-4.06,5.42-6.35,7.94a6.6,6.6,0,0,1-2.91,1.67c-2.9.31-3.66-2-4.79-3.91Z"/><path class="cls-30" d="M24,118.89l4.82,3.36a1.24,1.24,0,0,1,0,1.65l-3.6,3.65C22.87,124.94,23.65,121.89,24,118.89Z"/><path class="cls-31" d="M90.1,13.27l3.28-1.4a19.5,19.5,0,0,1,11.9,0l3.39.05c3.26,3,9.15,2.95,10.24,8.58.32,3.31-2.58,3.86-4.49,5.27-11.13,5-11.39,5.13-16.06-6.85C96.7,14.62,91,17.77,90.1,13.27Z"/><path class="cls-32" d="M113.76,24.07l5.15-3.6,5.1-5.06a26.9,26.9,0,0,0,8.38,8.34L129,26.88c-2.12,3.14-4.14,6.35-6.18,9.55a4.38,4.38,0,0,1-3.33,1.51C113.63,34.93,110.4,30.85,113.76,24.07Z"/><path class="cls-33" d="M122,35.09a10.37,10.37,0,0,1,7-8.21c10.87,13.3,24,24.39,35.76,36.83,2.88,3.06,5.66,6.2,8.49,9.3-4.34,2.72-8.08-1.06-12.17-1.09a15,15,0,0,1-7-2.69c-9.5-8.66-17.76-18.63-28.09-26.45C123.55,41,121,38.8,122,35.09Z"/><path class="cls-34" d="M161.31,69.62,173.21,73l3.32,1.71c3,4.62,7.11,8.44,9,13.94,1.62,4.69-1,4.53-3.93,4.77-2.6.8-3.62-1.1-4.78-2.78-2.32-5.36-7.22-8.53-10.86-12.78C163.91,75.46,160.34,73.79,161.31,69.62Z"/><path class="cls-35" d="M42.46,146.07,47,142.5c0-2.38,1.86-3.19,3.42-4.3,2.39-1.29,4.57-3,7.07-4.09,1.58-.51,3.17-1.05,4.56.43C67.58,145,72,155.94,76.23,166.9c3.84,9.84,8.76,18,19.18,21.72-3.65,2.36-7.79,3.11-12,3.66q-18-17.64-35.95-35.29c-2.67-2.62-4.62-5.6-5.07-9.41C42.42,147.08,42.44,146.57,42.46,146.07Z"/><path class="cls-36" d="M127.37,181.59,113.5,185c-5-1.41-8.12,5.39-13.32,3-4.89-4.33-6-10.68-8.58-16.23C84.37,156.22,79,139.85,70.43,124.88c-2.53-8.39-11-11.75-15.64-18.33-1-3.32-1.82-6.65-1.34-10.16,1-2.38,2.9-2.87,5.23-2.29,2.55.63,2.87,5.74,6.28,3.85,4.08-2.25.85-6.51,1.63-9.78,1.21-4.57,5-6.45,8.75-8.34,1.94-.84,3.9-1.53,6.06-.84,3.67,2.4,4.73,6.34,5.93,10.19a12.67,12.67,0,0,1-1.19,4.56c-.71,1.81-1.26,3.67-1.83,5.53-3.18,10.79-2.36,12.7,7.6,16.8C99,119,104.89,123,107,130.88a25.3,25.3,0,0,1,.22,7.52,16.76,16.76,0,0,1-.45,2.43,23.39,23.39,0,0,0-1,7c.67,11.38,2.6,14.09,12.63,17.64a3.1,3.1,0,0,1,1.21,2.11c.39,2.39-.31,5.55,3,6.24,2.48.52,3.89-1.88,5.5-3.37,2.47-2.29,4.53-5.09,7.48-6.76s5.52-2.08,5.4,2.67Z"/><path class="cls-37" d="M140.94,166.41c-1.2-2.6-2.68-3.4-5-1a100.5,100.5,0,0,1-7.7,7.61c-2.08,1.76-3.44,6-7.3,3.56s-4.76-5.93-2.12-10c.11-2,1.5-3.27,2.7-4.64a30,30,0,0,0,4.15-4.92c.79-1.25,1.63-2.46,2.51-3.65,1.18-1.53,2.35-3.09,4.55-3.17,9.53,6,9.53,6,18.32-2.71a70.07,70.07,0,0,1,5.44-5.18,4,4,0,0,1,3.36-.9c1.71-.05,3.49-.46,4.92.94A180.07,180.07,0,0,1,140.94,166.41Z"/><path class="cls-38" d="M70.89,123.79c6.32,3.61,6.73,10.67,9.23,16.38C87.08,156,93.53,172,100.18,188l-1.69.6-3.08,0c-6.18.38-11.86-1.76-14.45-7.1-7.47-15.43-15-30.88-19.85-47.43a1.54,1.54,0,0,1-.51-1.22c0-.45.09-.68.18-.69,1.35-1.62,3.27-2.61,4.65-4.2,1.21-1.28,2.19-2.77,3.47-4A1.94,1.94,0,0,1,70.89,123.79Z"/><path class="cls-39" d="M184.91,124.2l-4.85-5.46A25.14,25.14,0,0,1,168.24,116c3.46-11-2.37-19.15-8.3-27.28-3.21-6.67-2.91-7,5.91-7.25A9.42,9.42,0,0,1,172,86c1.11,7.24,4.62,13.62,7.37,20.28,1.43,3.47,3.54,5.63,7.64,4.47a4,4,0,0,1,3.23,1.34C189.57,116.6,186.64,120.14,184.91,124.2Z"/><path class="cls-40" d="M190.2,112.07h-3.42c-2.69-2.94-.74-6-.33-9.06.75-2.28-.11-4.42-.61-6.59,1.68-3.06,5.07-3.07,7.75-4.34C193.19,98.87,195,106,190.2,112.07Z"/><path class="cls-41" d="M188.36,101.48q-.8,5.3-1.58,10.59c-3,2.38-5.77,3.83-7.44-1.33-2.58-8-9.61-14.52-7.85-23.93,4.16-2.51,5,1.24,6.67,3.51a5.11,5.11,0,0,0,3.46,3.11A1.38,1.38,0,0,1,181.5,95C181,100.11,186.31,99.06,188.36,101.48Z"/><path class="cls-42" d="M188.36,101.48c-3.2,0-6.55.83-8.9-2.47-2-2.84-1.05-3.91,2-4l4.34,1.44C188.69,97.11,190.63,98.25,188.36,101.48Z"/><path class="cls-43" d="M169.78,132.33l-1.7.11c-8.35.86-11-4.88-13.14-11.28a5.43,5.43,0,0,1,1.82-3.37,7,7,0,0,1,5.93-1.56c4.48,2.76,8.44,6,10.47,11.1Z"/><path class="cls-44" d="M173.16,127.33A38.06,38.06,0,0,1,163,117.24c1-2.43,2.64-3.43,5.2-2.18,4.3.11,8.59.24,11.85,3.68.18,3-2.49,4.53-3.56,6.88Z"/><path class="cls-45" d="M156.26,120.75a18,18,0,0,0,11.82,11.69l-8.19,9-2,1.46a2.2,2.2,0,0,1-2.28-.14c-2.34-5.09-9-7.33-9.14-13.89C148.46,124.65,150.23,120.13,156.26,120.75Z"/><path class="cls-46" d="M113.76,24.07c-.29,5.74,1.63,10.35,6.81,13.29A14.66,14.66,0,0,1,125,44.09a6.22,6.22,0,0,1-.13,3.5,17.59,17.59,0,0,1-5.57,6c-2.63,1.57-5.43,2.8-8.12,4.25-1.74,1-3.39,2-2.3,4.39,1.57,3.5-.15,5.64-3,7.35a6.82,6.82,0,0,1-4.86.8c-3.36-1.6-4.5-4.93-5.91-7.93q-7.72-16.39-14.27-33.3c-4.12-10.69-3.65-11.57,5.8-19l3.49,3.09c1.83,2.32,4,.73,6.12.64,2.39-.11,5.08.35,4.87,3.19-.27,3.74-2.9,7.92,2.55,9.84C107.47,28.3,110.33,24.88,113.76,24.07Z"/><path class="cls-47" d="M86.61,10.18c-.09.55,0,1.38-.29,1.63-9.72,7.54-4.46,15.71-.68,23.45,5.63,11.51,8.24,24.52,16.86,34.57a3.16,3.16,0,0,1-.67,2.29c-6.4,3.54-12.94,6.75-20.34,7.65l-5.11,1.66c-4-2.05-5.41-5.64-5.73-9.85.58-2,2-3.34,3.52-4.66,2.4-1.72,2.48-3.39,0-5.23-2.71-2-6-2.94-8.91-4.56a5.79,5.79,0,0,1-2.21-2.88,13.54,13.54,0,0,1-.28-6.2,18.33,18.33,0,0,1,3.73-7.64c1.25-1.5,2.67-2.84,4-4.27,3.87-3.36,3.82-7,.82-10.88l-3.44-1.77c3.41-8.39,10.57-12.14,18.48-15A3.79,3.79,0,0,1,86.61,10.18Z"/><path class="cls-48" d="M105.28,11.84l-11.9,0A10,10,0,0,1,105.28,11.84Z"/><path class="cls-49" d="M32.15,88.43c-.47-6-7.34-8.09-8.4-13.74,0-.56,0-1.11.07-1.67l5.05-3.4c9,5.06,14.75,13.75,22.44,20.29-.44,4.3-4,5.61-7.07,7.46-6-.32-8-6.14-12.11-9Z"/><path class="cls-50" d="M42.47,54.39l1.68,0c9.18,5.19,15.17,13.84,22.71,20.83a15.85,15.85,0,0,1-1.73,9.7,3.45,3.45,0,0,1-4.61.35C52.09,77.89,43,71.11,37.36,61.13Z"/><path class="cls-51" d="M37.36,61.13c6.61,6.33,13.22,12.69,19.86,19,2.17,2.06,3.89,4.9,7.49,4.74,2.62,0,2.41,1.67,2,3.44C64.88,91.66,62,93,58.23,92.67a10.24,10.24,0,0,1-4.78-3.76C47.6,80.22,38.91,74.17,32.26,66.22L34,62.84Z"/><path class="cls-52" d="M32.26,66.22c9.44,5.45,17.1,12.66,22.16,22.43C54,90.89,52.81,91.21,51,90c-9.61-4.38-15.22-13.1-22.14-20.4A5.91,5.91,0,0,1,32.26,66.22Z"/><path class="cls-53" d="M66.48,74.8c-9.75-4.29-15.36-13.12-22.33-20.46a10.88,10.88,0,0,1,5.09-5.11c8,6.42,16.76,12.1,21.2,22C70.17,73.54,69.16,75.08,66.48,74.8Z"/><path class="cls-54" d="M69.76,71.75c-4.65-6.75-10.65-12.2-17-17.25-1.86-1.48-3.49-2.74-3.53-5.27l0-1.64,3.36-1.75c4.63,1.87,8.15,5.29,11.83,8.5l1.78,1.79c3.37,3.62,10.87,4.28,8.54,12L71.4,71.64A1.17,1.17,0,0,1,69.76,71.75Z"/><path class="cls-55" d="M64.46,54.34c-5.39-.83-9.08-4-11.83-8.5l3.42-5.05c.55,0,1.11,0,1.67-.06,3.59.88,5.52,3.34,6.49,6.74Q64.33,50.91,64.46,54.34Z"/><path class="cls-56" d="M71.38,25.26c7,3.78,7,5.69.07,12.37C68.23,36.29,67,34,67.9,30.54Z"/><path class="cls-57" d="M67.9,30.54l3.55,7.09-3.24,3.24c-4.76,1.32-6.81-.17-5.4-5.23,0-.55,0-1.09,0-1.64Z"/><path class="cls-58" d="M62.81,35.64c.16,3.44,2.14,5,5.4,5.23l-4,6.6a19,19,0,0,1-6.49-6.74A11.11,11.11,0,0,1,62.81,35.64Z"/><path class="cls-59" d="M32,103.46l2.26-6.67c5-3.45,7.27,1.69,10.63,3.4a5.61,5.61,0,0,1,1.85,3.16c0,2.34-1.42,3.77-3.19,5a10,10,0,0,1-3.41,1.41C35.88,109.66,33.3,107.39,32,103.46Z"/><path class="cls-28" d="M44.41,101.79c-3.62-1.19-5.47-6-10.15-5l-2.13-8.41c5.72.27,7.37,6.22,11.73,8.39C45.6,98.27,45.66,100,44.41,101.79Z"/><path class="cls-60" d="M32,103.46c3.28,1.1,4.69,5.35,8.71,5.2.86,1.75-.08,2.87-1.35,3.88a1.75,1.75,0,0,1-2-.48c-3.69.08-5.82-4.34-9.81-3.38C28.28,106.3,30.08,104.84,32,103.46Z"/><path class="cls-61" d="M51.14,139.64,47,142.5c-6.32-5.92-12.86-11.64-18.13-18.6,0-.55,0-1.1,0-1.65l1.74-1.7c.44-.37,1.05-.91,1.42-.73C40.92,123.94,48.1,129.81,51.14,139.64Z"/><path class="cls-62" d="M51.14,139.64c-6.19-7.09-11.64-15-20.58-19.09a17.68,17.68,0,0,1,6.79-6.8c8.26,5.85,16.41,11.8,20.29,21.73Z"/><path class="cls-63" d="M57.64,135.48,37.35,113.75v-1.69L39,112c11.1,3,18.16,10.28,22.28,20.75,0,.44-.11.87-.19,1.3Z"/><path class="cls-64" d="M124,44.15c-2.4-1.63-2.32-4.5-3.4-6.79L122,35.1c7,9.67,17.82,15.43,25.27,24.65,2.29,2.84,4.85,5.45,7.28,8.17-2.35,2.45-5.3,2-8.2,1.67a9.64,9.64,0,0,1-2.34-.85,10.36,10.36,0,0,1-2.67-2.53c-2.88-4.54-6.9-8.07-10.74-11.7A23,23,0,0,1,124,44.15Z"/><path class="cls-65" d="M144.33,67.92h10.19a11.42,11.42,0,0,0,6.79,1.7c4.12,4.41,8.26,8.8,12.37,13.23,2,2.17,4.84,3.87,4.48,7.47-2.35-.93-3.59-4-6.67-3.51l-5.17-3.89c-7-.37-13.86-.92-18.78-7C145.61,73.5,143,71.54,144.33,67.92Z"/><path class="cls-66" d="M132.06,150.93l-3,3.65c-8.88-4.67-14-13.59-21.91-19.38-1.14-1.22-.84-2.93-1.45-4.33A22.06,22.06,0,0,0,92,118.24C79.48,114,78,110.5,83,98.08c14.49,15.32,31.08,28.47,45.57,43.8,1.73,1.83,3.74,3.45,4.69,5.91C133.5,149.08,133.42,150.25,132.06,150.93Z"/><path class="cls-67" d="M132.35,147.72l-46.3-43.84a8.43,8.43,0,0,1-3-5.8c.37-1.66-.3-3.74,1.89-4.67,17.4,15.21,34.89,30.31,50.16,47.76C135.57,143.94,134.81,146.19,132.35,147.72Z"/><path class="cls-68" d="M134.39,140.94c-13.7-12.1-27.63-24-40-37.45-3.12-3.4-8.92-4.34-9.48-10.08l1.61-3.74a2.61,2.61,0,0,1,2.31.09c12.08,14.17,27.49,24.92,39.94,38.73,2.25,2.49,5.07,4.5,6.47,7.72A4.81,4.81,0,0,1,134.39,140.94Z"/><path class="cls-69" d="M88.16,89.61l-.82.12-.82-.06c-2.7-2.78-3.45-6.55-5-9.9,6.18-4.38,13.33-6.44,20.48-8.47,2.34.44,3.51,2.41,5.09,3.85,1.25,1.59,4.25,2,3.45,5a5.69,5.69,0,0,1-1.9,1.15c-2.48.65-5.12.46-7.57,1.35a29.83,29.83,0,0,0-6.16,2.88,46.4,46.4,0,0,0-3.95,3.2A3.56,3.56,0,0,1,88.16,89.61Z"/><path class="cls-70" d="M127,157.9a9.18,9.18,0,0,1-4.46,5.23c-6.58,2.31-8.51-4-12.27-6.75-3-2.21-4.94-5.35-6.62-8.64-.32-2.45-.74-4.91,1.22-7,3.18-2.07,5.46,0,7.42,1.95C117.29,147.69,122.83,152.13,127,157.9Z"/><path class="cls-71" d="M127,157.9c-6.14-1.67-8.83-7.5-13.33-11.15-2.77-2.25-4.6-5.84-8.8-6l.6-1.61c1.42-1.38-.24-3.82,1.72-5,9.25,4.71,15.16,13,21.89,20.43Z"/><path class="cls-72" d="M103.65,147.74c7.15,4.08,10.37,13,18.89,15.39l-3.68,3.48C108.13,166.18,103.54,160.48,103.65,147.74Z"/><path class="cls-73" d="M69.76,71.75a5.33,5.33,0,0,1,1.64-.12l5,9.8c-3.46,1.81-7.1,3.41-8.8,7.33l-.83.13-.56-.61-1.48-3.42c-.39-3.53-.22-7,1.77-10.06Q68.11,73.27,69.76,71.75Z"/><path class="cls-74" d="M66.19,88.28c.46.18.92.34,1.39.48.35,1,.62,2.11,1.06,3.11,1.83,4.2,1.12,8-3.23,9.55-5.19,1.79-5.4-3-6.39-6.27-.67-1.05-2.5-1.79-.94-3.45Z"/><path class="cls-75" d="M58.08,91.7c.31,1.15.63,2.3.94,3.45-1.76,0-3.61-.33-4.71,1.6a13.1,13.1,0,0,1-6.72,7.43A1.15,1.15,0,0,1,46.12,103l-1.71-1.25c-.19-1.67-.37-3.35-.55-5L51,90l3.41-1.37Z"/><path class="cls-76" d="M70.89,123.79a7.93,7.93,0,0,0-1.18.33c-6.73-4.27-13-9-15.73-17a1.51,1.51,0,0,1,2.06-.31C61.79,111.8,70,114.55,70.89,123.79Z"/><path class="cls-77" d="M56,106.86l-1.66.4c-4.1,1.52-5.93-.56-6.76-4.25l6.69-6.26C56.33,99.87,56.08,103.38,56,106.86Z"/><path class="cls-70" d="M107.19,134.15c-.34,1.75.11,3.78-1.72,5,.08-2.77.16-5.53.25-8.3Z"/><path class="cls-78" d="M134.39,140.94c0-1.68,0-3.36,0-5-1.7-1.74-2.11-4-2.38-6.24a19.17,19.17,0,0,1,.49-5.44,6.32,6.32,0,0,1,3.23-4.13c6.54.6,7.54,6.25,9.8,10.76-2,9,5.28,9.4,10.71,11.51l1.64.54c-2.07,2.28-4.05,4.64-6.22,6.81-10,10.09-10,10.07-19.59,1.22.1-1.07.2-2.14.29-3.21Z"/><path class="cls-79" d="M47.62,103c2.47,1.07,3.57,4.32,6.76,4.25l15.33,16.86a5.12,5.12,0,0,1-3.3,5c-10.85-4.29-19.13-11.37-24-22.17A6.53,6.53,0,0,0,46.12,103,3.79,3.79,0,0,0,47.62,103Z"/><path class="cls-80" d="M42.45,107c6.58,8.91,15.35,15.45,24,22.17a8.5,8.5,0,0,1-5.11,3.64A83.41,83.41,0,0,0,39,112c.56-1.13,1.13-2.25,1.69-3.38Z"/><path class="cls-81" d="M168.21,115.06l-5.2,2.18-5.1,1.48a44.66,44.66,0,0,1-7.49-19.33c.36-1.7,1.72-2.49,3-3.33,1.8-1,3.67-2,4.95-3.68,1-1.34,1.42-3.07,2.87-4.08,7.42,5.79,8.81,14.72,11.54,22.84C173.74,114,169.39,113.26,168.21,115.06Z"/><path class="cls-82" d="M161.26,88.3c-.37,1.8.18,3.88-1.56,5.29-5.51-2-8.37-7.16-12.52-10.77-2.5-2.18-4.43-5-7.8-6.13-2.09-2.93-5.79-5.43-2.72-9.79,2.78-1.32,5.26-.45,7.67,1h0c4.27,9.48,12.66,12.93,22,15-2.41.24-5.39-1.32-7.09.61C157.78,85.19,160.44,86.71,161.26,88.3Z"/><path class="cls-83" d="M151.13,98.21c2,6.91,6.36,13.06,6.78,20.51l-1.65,2a18.92,18.92,0,0,0-8.66,8,3,3,0,0,1-2.67,2.21c-4.1-2.51-4.1-8.56-9-10.4-1.75-1.72-.93-3.56-.29-5.4a49.84,49.84,0,0,1,2.53-5,50.93,50.93,0,0,0,3.43-5.49c1.54-2.49,2.14-5.44,3.78-7.9a4,4,0,0,1,2-1A3.81,3.81,0,0,1,151.13,98.21Z"/><path class="cls-84" d="M144.93,131l2.67-2.21c.48,6.06,9.12,6.94,8.63,13.61-.82.1-1.63.26-2.46.3C142.82,143.19,141.62,141.59,144.93,131Z"/><path class="cls-65" d="M144.33,67.92h-8.47c-3.83,1.13-5.7-2-8.25-3.72-3.08-3.81-9.44-5.16-8.84-11.73,1.34-2,2.73-4,5.22-4.8,6.27,6.13,12.35,12.45,18.65,18.56Z"/><path class="cls-85" d="M105.36,68.11c.85-1.43,4.49-2.42,2.18-4.32-7.35-6,.33-5.69,2.88-7.55,5.35,2.39,9.34,6.36,12.8,11-.06,4-1.24,7-6,6.63C113.73,70.93,107.42,73.9,105.36,68.11Z"/><path class="cls-86" d="M122.14,66.22c-5.64-1.29-8.3-6.08-11.72-10,2.53-1.82,5.17-3.4,8.35-3.77,2.25,4.63,7,6.9,10.19,10.6A11,11,0,0,1,122.14,66.22Z"/><path class="cls-87" d="M142.64,66.22A41.71,41.71,0,0,1,124,47.66c0-1.17,0-2.34,0-3.51C129.24,52.31,138.85,56.8,142.64,66.22Z"/><path class="cls-88" d="M105.36,68.11c3,4.1,10.72-2.14,12,5.57-2.55,7.27-7.81,3-12.1,2.84q-1.64-2.61-3.29-5.22a4.8,4.8,0,0,0,.53-1.47Z"/><path class="cls-89" d="M114.69,50a3.1,3.1,0,0,1-3.79,2.4c-2.6-.37-5-1.64-5.37-4.35-.3-2.2,2-2.17,3.59-2.2C112,45.77,113.49,47.74,114.69,50Z"/><path class="cls-55" d="M74.78,68.09c-.45-5.7-6.48-7.41-8.54-12,3.08,1.22,6.31,2.14,9.18,3.72C80.89,62.85,80.81,65.8,74.78,68.09Z"/><path class="cls-90" d="M133.91,129c.16,2.3.31,4.6.47,6.9L90.61,94.83a7.33,7.33,0,0,1-2.45-5.22l1.59-1.83c4.75,1.71,7.59,5.76,10.8,9.2C111.09,108.27,123.06,118.05,133.91,129Z"/><path class="cls-91" d="M105.26,76.52c4.35.41,8.69.74,12.1-2.84,3.16-1.48,5-3.8,4.78-7.46,1.59-2.53,3.57-4.22,6.82-3.16l6.9,4.85,5,8.64c1.87,1.6,2.1,3.82,2.3,6.06-.18,3.08,1.32,6,.64,9.18a4.82,4.82,0,0,1-2.63,2.91,13.61,13.61,0,0,1-5.29.78c-2.57-.1-5.49-.41-6.89-2.49-4.61-6.83-11.94-9.64-18.62-13.45Z"/><path class="cls-92" d="M137.31,115.46q-.67,2.55-1.36,5.1L134.11,124c-2.24,1-3.89-.37-5.18-1.74-10.36-11-22.63-19.95-32.89-31-1.64-1.78-3.86-3.47-2.75-6.48a8.5,8.5,0,0,1,6.82-3.37A354.52,354.52,0,0,1,137.31,115.46Z"/><path class="cls-93" d="M110.37,79.54c7.7.75,14.74,2.46,18.33,10.57,1.24,2.81,4.44,3,7.13,3.62,3.4,3.26,8.89,5.3,6.87,11.73a8.87,8.87,0,0,1-2.89,5.18c-3,1.3-4.65-1.11-6.63-2.52-8.11-5.77-14.83-13-21.68-20.16-2-2.06-5.11-4.1-2.82-7.87Z"/><path class="cls-94" d="M93.29,84.7c11.92,14.83,27.51,25.86,40.82,39.25-.07,1.68-.13,3.37-.2,5-17.49-10.77-30.52-26.32-44.16-41.22Z"/><path class="cls-95" d="M108.68,80.09c4.72,9.46,13.56,15.19,20.61,22.5,3,3.15,7,5.4,10.52,8l-2.5,4.82a199.56,199.56,0,0,1-37.2-34.13C102.71,79.16,105.73,79.84,108.68,80.09Z"/><path class="cls-96" d="M141.25,83.27l-.39-6.72c8.76,2.93,13,10.86,18.84,17A4.23,4.23,0,0,1,154.83,97C147.52,95.15,144.53,89.06,141.25,83.27Z"/><path class="cls-97" d="M141.25,83.27Q148,90.11,154.82,97l-3.69,1.25L148,96.51c-2.6-.82-4.78-2-4.94-5.18C142.34,88.67,140.64,86.23,141.25,83.27Z"/><path class="cls-98" d="M142.7,105.46c.1-5.3-6.6-6.64-6.87-11.73h4.86c2.15.41,4.48.52,5.42,3.07A12.69,12.69,0,0,1,142.7,105.46Z"/><path class="cls-99" d="M146.11,96.79l-5.42-3.07,2.37-2.39L148,96.51Z"/></g></g></svg>