<?xml version="1.0" encoding="utf-8"?>
<!-- Generator: Adobe Illustrator 23.0.5, SVG Export Plug-In . SVG Version: 6.00 Build 0)  -->
<svg version="1.1" id="Layer_1" xmlns="http://www.w3.org/2000/svg" xmlns:xlink="http://www.w3.org/1999/xlink" x="0px" y="0px"
	 viewBox="0 0 384 384" style="enable-background:new 0 0 384 384;" xml:space="preserve">
<style type="text/css">
	.st0{fill:#F7DF1E;}
</style>
<rect y="4" width="384" height="380"/>
<path class="st0" d="M0,0h384v384H0V0z M101,321c10,22,28,33,54,33c16.7,0,29.8-4.5,39.5-13.5S209,318,209,300V176h-36v123
	c0,15.3-6.3,23-19,23c-8.7,0-16.7-6.3-24-19L101,321z M228,317c12.7,24.7,34.7,37,66,37c18,0,32.5-4.5,43.5-13.5S354,319.3,354,304
	c0-14.7-3.8-26-11.5-34s-19.8-15.7-36.5-23l-9-4c-8-3.3-13.7-6.5-17-9.5s-5-7.2-5-12.5c0-4,1.5-7.5,4.5-10.5s7.2-4.5,12.5-4.5
	c10,0,18,5,24,15l27-18c-10.7-19.3-27.7-29-51-29c-16,0-28.8,4.5-38.5,13.5c-9.7,9-14.5,20.5-14.5,34.5s3.7,25,11,33
	c7.3,8,18.3,15,33,21l9,4c6.7,3.3,11.5,5.7,14.5,7s5.7,3.5,8,6.5S318,300,318,304c0,5.3-2.2,9.7-6.5,13s-10.2,5-17.5,5
	c-15.3,0-27.3-7.3-36-22L228,317z"/>
</svg>
