<svg xmlns="http://www.w3.org/2000/svg" xmlns:xlink="http://www.w3.org/1999/xlink" viewBox="0 0 259.77 253"><defs><style>.cls-1{fill:#ee7913;}.cls-2{fill:url(#linear-gradient);}.cls-3{fill:#f0e64a;}.cls-4{fill:url(#linear-gradient-2);}.cls-5{fill:#fff;fill-opacity:0.17;}</style><linearGradient id="linear-gradient" x1="258.53" y1="87.88" x2="254.94" y2="323.95" gradientTransform="matrix(1.07, 0, 0, -1.07, -66.32, 350.18)" gradientUnits="userSpaceOnUse"><stop offset="0" stop-color="#589632"/><stop offset="1" stop-color="#93b023"/></linearGradient><linearGradient id="linear-gradient-2" x1="185.87" y1="87.56" x2="182.31" y2="321.67" xlink:href="#linear-gradient"/></defs><title>Asset 5</title><g id="Layer_2" data-name="Layer 2"><g id="Layer_1-2" data-name="Layer 1"><polygon id="polygon3" class="cls-1" points="179 137.72 148.13 107.2 110.32 107.2 110.32 143.54 142.53 175.64 142.53 137.72 179 137.72"/><polygon id="polygon31" class="cls-2" points="194.43 152.98 157.79 152.98 157.79 190.85 220.14 253 259.5 253 259.5 217.31 194.43 152.98"/><polygon id="polygon33" class="cls-3" points="194.43 152.98 179 137.72 142.53 137.72 142.53 175.64 157.79 190.85 157.79 152.98 194.43 152.98"/><path id="path40" class="cls-4" d="M147.7,200.21a76,76,0,0,1-17.19,2c-42.4,0-78.45-34.86-78.45-80.06s35.66-79.29,78.45-79.29,76.85,34.09,76.85,79.29a85.75,85.75,0,0,1-2.61,21.12L244,182.47a121.53,121.53,0,0,0,15.78-60.65C259.77,52.16,204.17,0,129.71,0,55.59,0,0,51.82,0,121.82,0,192.16,55.59,245,129.71,245a142.58,142.58,0,0,0,53-9.92Z"/><path id="polygon4174" class="cls-5" d="M110.32,107.2,259.5,253V217.31L194.43,153,179,137.72,148.13,107.2Z"/></g></g></svg>